<svg xmlns="http://www.w3.org/2000/svg" version="1.1" id="Layer_1" x="0" y="0" width="206" height="54" viewBox="0 0 206 54" xml:space="preserve"><style>.s0{fill:#0DB2DB;}.s1{fill:#3F6B77;}.s2{fill:#FFF;}.s3{fill:#0081A5;}.s4{opacity:0.6;}.s5{fill:none;stroke-width:0;stroke:#0075A8;}.s6{fill:none;stroke-width:0.7;stroke:#555;}.s7{fill:none;}.s8{fill:#14778D;}.s9{stop-color:#E21113;}.s10{stop-color:#961914;}.s11{stop-color:#EB6B5D;}.s12{stop-color:#831714;}.s13{stop-color:#B91514;}.s14{stop-color:#5E1814;}.s15{stop-color:#CF1514;}.s16{stop-color:#943932;}.s17{stop-color:#B51113;}.s18{stop-color:#B71714;}.s19{stop-color:#A81814;}.s20{stop-color:#DC1113;}.s21{stop-color:#971914;}.s22{stop-color:#981914;}.s23{stop-color:#991914;}.s24{stop-color:#9A1914;}.s25{stop-color:#9B1914;}.s26{stop-color:#9C1914;}.s27{stop-color:#9D1914;}.s28{stop-color:#9E1914;}.s29{stop-color:#9F1914;}.s30{stop-color:#9F1814;}.s31{stop-color:#A01814;}.s32{stop-color:#A11814;}.s33{stop-color:#A21814;}.s34{stop-color:#A31814;}.s35{stop-color:#A41814;}.s36{stop-color:#A51814;}.s37{stop-color:#A61814;}.s38{stop-color:#A71814;}.s39{stop-color:#FFFFFD;}.s40{stop-color:#FAF6F4;}.s41{stop-color:#F6F1EE;}.s42{stop-color:#E9E2DC;}.s43{stop-color:#E4DCD5;}</style><path d="M91.7 35.1c0-0.4 0.1-1.1 0.1-2.2 0.2-1.9 0.3-3.5 0.3-4.6 0-1.6-0.1-2.9-0.4-3.9 -0.3-1-0.7-1.5-1.1-1.5 -0.8 0-1.7 0.7-2.6 2 -1 1.3-1.5 2.5-1.5 3.6 0 2 0.1 3.8 0.4 5.1 0.3 1.4 0.4 2.1 0.4 2.4 0 0.9-0.5 1.4-1.6 1.4 -0.6 0-1 0-1.3-0.1 -0.3-0.1-0.5-0.3-0.7-0.7 -0.4-1-0.8-4.1-1.4-9.1 -0.1-0.9-0.3-2.7-0.6-5.3 -0.6-3.9-0.8-6.6-0.8-7.9 0-1.2 0.2-2.1 0.7-2.6 0.4-0.5 1.2-0.8 2.2-0.8 0.6 0 1 0.2 1.4 0.5 0.4 0.3 0.5 0.7 0.5 1.1 0 0.2 0 0.6-0.1 1.1 -0.1 1.3-0.1 2.5-0.1 3.7 0 0.6 0.1 1.8 0.3 3.5 0.1 1.5 0.2 2.6 0.3 3.3 0.2-1 1-1.9 2.3-2.8 1.3-0.9 2.6-1.3 4.1-1.3 1.3 0 2.2 0.7 2.9 2.2 0.7 1.4 1 3.5 1 6.2 0 0.4-0.1 1.3-0.2 2.8C96 33 96 34.1 96 34.7c0 0.7-0.2 1.2-0.6 1.6 -0.4 0.4-1 0.6-1.7 0.6 -0.6 0-1-0.2-1.4-0.5C91.9 36 91.7 35.6 91.7 35.1zM97.7 34.9c0-2.1 1.3-4.3 4-6.4 0.3-0.3 0.8-0.6 1.4-1.1 0.6-0.5 1.2-0.9 1.8-1.4 0.6-0.5 1.1-0.7 1.4-0.8 -0.1-0.8-0.4-1.4-0.7-1.8 -0.3-0.5-0.7-0.7-1.2-0.7 -0.5 0-1 0.1-1.7 0.5 -0.6 0.3-1.1 0.6-1.5 1 -0.5 0.5-0.8 0.7-1 0.7 -0.4 0-0.8-0.2-1.1-0.5 -0.4-0.3-0.6-0.7-0.6-1.1 0-0.6 0.4-1.1 1.2-1.5 0.8-0.5 1.8-0.9 3-1.3 1.1-0.4 2-0.6 2.5-0.6 1.2 0 2.2 0.5 3 1.4 0.8 0.9 1.4 2.4 1.9 4.2 0.5 1.5 0.7 3.7 0.7 6.4 0 1.2-0.1 2.4-0.4 3.5 -0.1 0.7-0.3 1.1-0.5 1.2 -0.2 0.1-0.4 0.2-0.7 0.3 -0.3 0.1-0.6 0.1-0.8 0.1 -0.6 0-1-0.1-1.4-0.4 -0.4-0.3-0.5-0.6-0.5-1.1l0.1-1.2c-0.7 0.8-1.6 1.4-2.7 1.9 -1.1 0.5-2.2 0.7-3.3 0.7C98.7 37 97.7 36.3 97.7 34.9zM106.7 27.8c-3.3 2.1-5 4-5 5.6 0 0.6 0.3 0.9 0.9 0.9 0.9 0 1.8-0.5 2.8-1.4 0.2-0.2 0.5-0.4 0.8-0.6 0.3-0.2 0.5-0.3 0.6-0.3v0C106.8 30.2 106.7 28.7 106.7 27.8zM114.1 24.2c-0.1 0-0.3 0-0.6 0.1 -0.5 0-0.9 0.1-1.1 0.1 -0.3 0-0.6-0.1-0.8-0.4 -0.2-0.2-0.4-0.5-0.4-0.7 0-0.4 0.1-0.8 0.3-1.1 0.2-0.3 0.5-0.4 0.9-0.4 0.2 0 0.4 0 0.8-0.1 0.3-0.1 0.5-0.1 0.6-0.1 0-0.8-0.1-1.8-0.3-3.1 -0.2-1-0.2-1.7-0.2-2.2 0-0.5 0.2-1 0.5-1.3 0.4-0.3 0.8-0.5 1.4-0.5 0.6 0 1.1 0.2 1.5 0.5 0.4 0.3 0.6 0.7 0.6 1.1 0 0.2 0 0.7 0.1 1.6 0.1 1.6 0.2 2.8 0.2 3.4 0.1 0 0.3-0.1 0.5-0.1 0.3-0.1 0.6-0.2 0.8-0.2 0.4 0 0.8 0.2 1 0.5 0.3 0.3 0.4 0.7 0.4 1.1 0 0.2 0 0.4-0.1 0.6 -0.1 0.2-0.2 0.3-0.4 0.5 -0.1 0.1-0.8 0.3-2 0.5 0 0.4 0 1.4 0.1 2.9 0.1 1.5 0.1 2.5 0.2 3.1 0.1 0.6 0.1 1.7 0.2 3.3 0.1 1.7 0.1 2.7 0.1 3.1 0 0.4-0.2 0.7-0.5 1.1 -0.4 0.4-0.8 0.5-1.2 0.5 -0.7 0-1.2-0.1-1.6-0.4 -0.2-0.1-0.4-0.3-0.5-0.5 -0.1-0.2-0.2-0.9-0.3-2.1 -0.1-1.9-0.1-3.5-0.1-4.5 0-0.6 0-1.9-0.1-3.9C114.1 25.1 114.1 24.4 114.1 24.2zM126.2 30.8c0 0.8 0.2 1.8 0.4 3 0.1 0.8 0.2 1.3 0.2 1.6 0 0.4-0.2 0.8-0.6 1.2 -0.4 0.4-0.9 0.5-1.3 0.5 -0.5 0-1-0.1-1.4-0.4 -0.4-0.3-0.6-0.7-0.6-1.1 0-0.5-0.1-2.2-0.4-5 -0.3-2.9-0.5-4.6-0.5-5.2 -0.1-0.6-0.2-1.5-0.5-2.8 -0.5-2.6-0.7-4.4-0.7-5.3 0-0.4 0.2-0.8 0.6-1.2 0.4-0.3 1-0.5 1.6-0.5 0.4 0 0.8 0.1 1 0.4 0.3 0.3 0.4 0.6 0.4 1 0 0.2 0.2 1.2 0.6 2.9 0.4 2.2 0.7 3.4 0.7 3.9 0.4-0.3 1-0.9 2.1-1.9 1-0.9 1.7-1.6 2.2-2 0.4-0.4 0.6-0.7 0.6-0.8 -0.1-0.2-0.1-0.5-0.1-0.7 0-0.3 0.3-0.5 0.8-0.7 0.5-0.2 1.1-0.3 1.7-0.3 0.4 0 0.7 0.1 1 0.4 0.3 0.3 0.4 0.6 0.4 0.9 0 0.8-0.3 1.6-1 2.2 -0.6 0.5-1.8 1.5-3.5 3 -1.8 1.5-2.8 2.3-3 2.4 -0.5 0.3-0.8 0.6-0.8 0.9 0 0.1 0.4 0.3 1.1 0.7 0.3 0.2 0.5 0.3 0.6 0.3 2.7 1.7 4.8 2.7 6.1 3 0.5 0.1 1 0.4 1.3 0.8 0.4 0.4 0.5 0.8 0.5 1.2 0 0.4-0.1 0.8-0.3 1.1 -0.2 0.3-0.5 0.5-0.8 0.5 -1 0-2.3-0.5-4.1-1.4C128.5 32.5 127.1 31.6 126.2 30.8zM148.8 29.7c0 0.8-1.3 2.2-4 4.2 -0.1 0.1-0.3 0.2-0.6 0.4 -2.3 1.8-3.6 2.7-4.2 2.7 -1.1 0-2-0.6-2.7-1.9 -0.7-1.3-1.1-2.7-1.1-4.3v-0.6c-0.2 0.1-0.4 0.1-0.8 0.1 -0.2 0-0.3-0.1-0.5-0.4 -0.2-0.2-0.2-0.5-0.2-0.7 0-0.5 0.1-0.8 0.3-1.1 0.2-0.2 0.6-0.5 1.2-0.7 0-1.3 0.2-2.6 0.5-3.8 0.3-1.2 0.7-2.2 1.2-3 0.5-0.8 1-1.2 1.4-1.2 1.1 0 2.2 0.2 3.3 0.6 1 0.4 1.9 0.9 2.7 1.6 0.7 0.7 1.1 1.3 1.1 1.9 0 0.6-0.1 1.1-0.2 1.4 -0.1 0.3-0.3 0.6-0.6 0.9 -0.3 0.3-1.2 0.8-2.8 1.7 -1.6 0.9-2.4 1.4-2.7 1.6v0.9c0 0.9 0.1 1.6 0.4 2.2 0.3 0.6 0.5 1 0.8 1 0.5 0 1.5-0.7 2.9-2.2 1.1-1.2 1.9-1.9 2.3-2.2 0.4-0.3 0.7-0.4 1-0.4C148.3 28.6 148.8 29 148.8 29.7zM141 22.9c-0.2 0-0.5 0.4-0.7 1.2 -0.2 0.8-0.4 1.5-0.4 2.1 0.2-0.1 0.6-0.3 1.2-0.6 1-0.5 1.6-0.8 1.8-0.9 0-0.4-0.2-0.8-0.6-1.3C141.9 23.1 141.5 22.9 141 22.9zM154.2 28.9c0 0.7-0.1 1.2-0.5 1.6 -0.3 0.4-0.7 0.6-1.2 0.6 -0.5 0-1-0.2-1.5-0.5 -0.5-0.3-0.7-0.7-0.7-1.1 0-0.2 0-1 0-2.4 0-2.6 0.1-4.2 0.1-4.9 0-0.7-0.1-2.5-0.3-5.5 -0.1-2-0.2-3.2-0.2-3.5 0-0.6 0.2-1.1 0.6-1.6 0.4-0.5 0.9-0.7 1.4-0.7 1.4 0 2.1 0.8 2.1 2.5 0 0.1 0 0.4 0 0.8 0 1.5 0 2.9 0 4 0 1.7 0 4.2 0.1 7.5C154.2 27.4 154.2 28.5 154.2 28.9zM150.2 35.8c0-0.5 0.2-1 0.7-1.4s1-0.6 1.5-0.6c0.5 0 1 0.3 1.4 0.9 0.4 0.6 0.7 1.1 0.7 1.7 0 0.4-0.2 0.7-0.6 1 -0.4 0.3-0.9 0.4-1.5 0.4C150.9 37.8 150.2 37.1 150.2 35.8z" fill="#0DB2DB"/><path d="M34.9 14.5v7.4c0.7-0.7 1.4-1.2 2.2-1.5 0.8-0.3 1.6-0.5 2.5-0.5 1.9 0 3.6 0.7 4.9 2.2 1.4 1.5 2 3.4 2 5.7 0 2.2-0.7 4.1-2.1 5.6 -1.4 1.5-3.1 2.2-5 2.2 -0.9 0-1.7-0.2-2.4-0.5 -0.7-0.3-1.5-0.8-2.2-1.5v1.6h-3.7V14.5L34.9 14.5 34.9 14.5zM38.8 23.3c-1.2 0-2.1 0.4-2.9 1.2 -0.8 0.8-1.2 1.9-1.2 3.1 0 1.3 0.4 2.4 1.2 3.2 0.8 0.8 1.7 1.2 2.9 1.2 1.1 0 2.1-0.4 2.9-1.2 0.8-0.8 1.2-1.9 1.2-3.2 0-1.3-0.4-2.3-1.1-3.1C40.9 23.7 39.9 23.3 38.8 23.3zM48.6 20.2h3.8v7.2c0 1.4 0.1 2.4 0.3 2.9 0.2 0.5 0.5 1 0.9 1.3 0.4 0.3 0.9 0.5 1.6 0.5 0.6 0 1.1-0.2 1.6-0.4 0.4-0.3 0.8-0.7 1-1.3 0.2-0.4 0.2-1.3 0.2-2.8v-7.3h3.7v6.3c0 2.6-0.2 4.4-0.6 5.3 -0.5 1.2-1.2 2.1-2.2 2.7 -1 0.6-2.2 0.9-3.7 0.9 -1.6 0-2.9-0.4-4-1.1 -1-0.7-1.7-1.7-2.1-3.1 -0.3-0.9-0.4-2.5-0.4-4.9L48.6 20.2 48.6 20.2zM62.8 20.2h3.8l3.9 9.3 4.3-9.3h3.8l-9.3 20.3h-3.9l3.1-6.6L62.8 20.2z" fill="#3F6B77"/><linearGradient id="SVGID_1_" gradientUnits="userSpaceOnUse" x1="117.3" y1="-46.1" x2="117.3" y2="-22.7" gradientTransform="matrix(0.9832 -0.1828 -0.1828 -0.9832 -106.0419 13.671)"><stop offset="0" stop-color="#143440"/><stop offset="1" stop-color="#076F8A"/></linearGradient><polygon points="28.5 35.6 6.9 39.6 2.6 16.6 24.2 12.5 " style="fill:url(#SVGID_1_);stroke-width:0.1;stroke:#1F8691"/><path d="M10.6 19.6l8-1.5 0 0c-0.3 0.9-0.5 1.4-0.6 1.5L16 20.1c0.4 0.3 0.7 0.8 0.9 1.3l2.3-0.4c0 0 0 0 0 0 -0.4 1-0.5 1.5-0.5 1.5l-1.5 0.3c0 0.4 0 1-0.3 1.7 -0.3 0.7-0.7 1.2-1.1 1.5 -0.7 0.6-1.4 0.9-2.1 1l0 0c0 0.1 0.2 0.3 0.7 0.7l5 4.7 0 0.3c0 0 0 0 0 0L17.6 33c-3.9-3.6-5.9-5.4-5.9-5.4l-0.2-1.3 0-0.1c0.3 0 0.6 0 1-0.1 1.8-0.3 2.7-1.2 2.9-2.6 0-0.2 0-0.4 0-0.6l-4.8 0.9c0 0 0 0 0 0 0.4-1 0.6-1.4 0.6-1.5l3.8-0.7 0 0c-0.3-0.5-0.8-0.8-1.5-0.9 -0.5-0.1-0.9-0.1-1.2 0l-2.1 0.4 0-0.1C10.4 20.1 10.6 19.6 10.6 19.6z" fill="#FFF"/><circle cx="8" cy="17.9" r="0.5" fill="#0081A5"/><path d="M20.2 15.7c0.1 0.3-0.1 0.6-0.4 0.6 -0.3 0.1-0.6-0.1-0.6-0.4 -0.1-0.3 0.1-0.6 0.4-0.6C19.8 15.2 20.1 15.4 20.2 15.7z" fill="#0081A5"/><defs><path id="SVGID_2_" d="M8.5 17.9c0.1 0.3-0.1 0.5-0.4 0.6 -0.3 0.1-0.5-0.1-0.6-0.4 -0.1-0.3 0.1-0.5 0.4-0.6C8.2 17.4 8.5 17.6 8.5 17.9zM19.5 15.3c-0.3 0.1-0.5 0.3-0.4 0.6 0.1 0.3 0.3 0.5 0.6 0.4 0.3-0.1 0.5-0.3 0.4-0.6C20.1 15.4 19.8 15.2 19.5 15.3z"/></defs><clipPath id="SVGID_3_"/><image width="18" height="9" transform="matrix(0.9445 0 0 0.8889 5.6274 12.835)" opacity="0.6"/><path d="M6.7 17.1l0.4 2 14.2-2.6 -0.4-2L6.7 17.1zM8.1 18.4c-0.3 0.1-0.5-0.1-0.6-0.4 -0.1-0.3 0.1-0.5 0.4-0.6 0.3-0.1 0.5 0.1 0.6 0.4C8.6 18.1 8.4 18.4 8.1 18.4zM19.7 16.3c-0.3 0.1-0.6-0.1-0.6-0.4 -0.1-0.3 0.1-0.6 0.4-0.6 0.3-0.1 0.6 0.1 0.6 0.4C20.2 16 20 16.3 19.7 16.3z" fill="#FFF"/><path d="M6.7 17.1l0.4 2 14.2-2.6 -0.4-2L6.7 17.1zM8.1 18.4c-0.3 0.1-0.5-0.1-0.6-0.4 -0.1-0.3 0.1-0.5 0.4-0.6 0.3-0.1 0.5 0.1 0.6 0.4C8.6 18.1 8.4 18.4 8.1 18.4zM19.7 16.3c-0.3 0.1-0.6-0.1-0.6-0.4 -0.1-0.3 0.1-0.6 0.4-0.6 0.3-0.1 0.6 0.1 0.6 0.4C20.2 16 20 16.3 19.7 16.3z" class="s5"/><path id="SVGID_4_" d="M8.5 17.9c0.1 0.3-0.1 0.5-0.4 0.6 -0.3 0.1-0.5-0.1-0.6-0.4 -0.1-0.3 0.1-0.5 0.4-0.6C8.2 17.4 8.5 17.6 8.5 17.9zM19.5 15.3c-0.3 0.1-0.5 0.3-0.4 0.6 0.1 0.3 0.3 0.5 0.6 0.4 0.3-0.1 0.5-0.3 0.4-0.6C20.1 15.4 19.8 15.2 19.5 15.3z" class="s5"/><path d="M8 18c0 0-1.6-8.7 4.2-9.8 5.8-1.1 7.4 7.7 7.4 7.7" class="s6"/><linearGradient id="SVGID_5_" gradientUnits="userSpaceOnUse" x1="116.8" y1="-38.6" x2="116.8" y2="-15.1" gradientTransform="matrix(0.9992 4.110000e-002 4.110000e-002 -0.9992 -99.3979 -5.3461)"><stop offset="0" stop-color="#3A92B2"/><stop offset="1" stop-color="#0DB2DB"/></linearGradient><polygon points="26.7 38.4 4.7 37.5 5.7 14.1 27.6 15 " style="fill:url(#SVGID_5_);stroke-width:0.1;stroke:#1F8691"/><path d="M12.8 18.9l8.2 0.3v0c-0.5 0.8-0.8 1.3-0.9 1.3l-2.2-0.1c0.3 0.4 0.5 0.9 0.6 1.5l2.3 0.1c0 0 0 0 0 0 -0.6 0.9-0.8 1.3-0.9 1.3l-1.5-0.1c-0.1 0.4-0.3 1-0.6 1.6 -0.5 0.6-1 1-1.4 1.2 -0.8 0.4-1.6 0.6-2.3 0.5l0 0c0 0.1 0.2 0.3 0.5 0.8l3.8 5.7 0 0.3c0 0 0 0 0 0l-1.8-0.1c-3-4.3-4.5-6.5-4.5-6.6l0.1-1.3 0 0c0.3 0.1 0.6 0.1 1 0.1 1.8 0.1 2.9-0.5 3.4-1.8 0.1-0.2 0.1-0.4 0.1-0.6l-4.9-0.2c0 0 0 0 0-0.1 0.6-0.9 0.9-1.3 0.9-1.3l3.9 0.2v0c-0.2-0.5-0.6-0.9-1.2-1.2 -0.4-0.2-0.8-0.3-1.2-0.3l-2.2-0.1 0 0C12.5 19.4 12.8 18.9 12.8 18.9z" fill="#FFF"/><circle cx="10.6" cy="16.7" r="0.5" fill="#0081A5"/><circle cx="22.4" cy="17.2" r="0.5" fill="#0081A5"/><defs><path id="SVGID_6_" d="M11.1 16.7c0 0.3-0.2 0.5-0.5 0.5 -0.3 0-0.5-0.2-0.5-0.5 0-0.3 0.2-0.5 0.5-0.5C10.9 16.2 11.1 16.4 11.1 16.7zM22.4 16.7c-0.3 0-0.5 0.2-0.6 0.5 0 0.3 0.2 0.5 0.5 0.6 0.3 0 0.5-0.2 0.6-0.5C23 16.9 22.7 16.7 22.4 16.7z"/></defs><clipPath id="SVGID_7_"/><image width="18" height="6" transform="matrix(0.9445 0 0 0.8333 8.6274 14.8354)" opacity="0.6"/><path d="M9.5 15.6l-0.1 2.1 14.4 0.6 0.1-2.1L9.5 15.6zM10.6 17.2c-0.3 0-0.5-0.2-0.5-0.5 0-0.3 0.2-0.5 0.5-0.5 0.3 0 0.5 0.2 0.5 0.5C11.1 17 10.9 17.2 10.6 17.2zM22.4 17.7c-0.3 0-0.5-0.3-0.5-0.6 0-0.3 0.3-0.5 0.6-0.5 0.3 0 0.5 0.3 0.5 0.6C22.9 17.5 22.7 17.7 22.4 17.7z" fill="#FFF"/><path d="M9.5 15.6l-0.1 2.1 14.4 0.6 0.1-2.1L9.5 15.6zM10.6 17.2c-0.3 0-0.5-0.2-0.5-0.5 0-0.3 0.2-0.5 0.5-0.5 0.3 0 0.5 0.2 0.5 0.5C11.1 17 10.9 17.2 10.6 17.2zM22.4 17.7c-0.3 0-0.5-0.3-0.5-0.6 0-0.3 0.3-0.5 0.6-0.5 0.3 0 0.5 0.3 0.5 0.6C22.9 17.5 22.7 17.7 22.4 17.7z" class="s5"/><path id="SVGID_11_" d="M11.1 16.7c0 0.3-0.2 0.5-0.5 0.5 -0.3 0-0.5-0.2-0.5-0.5 0-0.3 0.2-0.5 0.5-0.5C10.9 16.2 11.1 16.4 11.1 16.7zM22.4 16.7c-0.3 0-0.5 0.2-0.6 0.5 0 0.3 0.2 0.5 0.5 0.6 0.3 0 0.5-0.2 0.6-0.5C23 16.9 22.7 16.7 22.4 16.7z" class="s5"/><path d="M10.6 16.7c0 0 0.4-8.9 6.2-8.6 5.9 0.2 5.5 9.1 5.5 9.1" class="s6"/><radialGradient id="SVGID_8_" cx="284.5" cy="-28.2" r="22.4" gradientTransform="matrix(1 0 0 -1 -100.96 -2.6602)" gradientUnits="userSpaceOnUse"><stop offset="0" stop-color="#DE1C24"/><stop offset="0.4" stop-color="#D91E26"/><stop offset="0.8" stop-color="#C9242A"/><stop offset="1" stop-color="#C1272D"/></radialGradient><circle cx="183.6" cy="25.6" r="22.4" fill="url(#SVGID_8_)"/><rect x="164.2" y="16.1" transform="matrix(-0.9951 9.859886e-002 -9.859886e-002 -0.9951 369.9774 33.7685)" width="40" height="19.9" fill="none"/><path d="M165 34.1c-0.1-0.1-0.2-0.1-0.2-0.2 0-0.1 0-0.2 0-0.3 0-0.1 0.1-0.2 0.2-0.3 0.1-0.1 0.2-0.3 0.3-0.7s0.2-0.8 0.3-1.4c0.1-0.5 0.2-1.1 0.3-1.7 0.1-0.6 0.2-1.2 0.3-1.8 0.1-0.6 0.1-1.1 0.2-1.6 0.1-0.5 0.1-0.9 0.1-1.2 0-0.4 0.1-0.8 0.1-1.2 0-0.4 0.1-0.8 0.1-1.3 0-0.5 0-1 0-1.6l1.5-0.8c0.2-0.1 0.4-0.1 0.5 0 0.1 0.1 0.1 0.4 0.1 0.9 0 0.2 0 0.6-0.1 1.1 -0.1 0.5-0.1 1.1-0.2 1.7s-0.1 1.3-0.2 1.9c-0.1 0.7-0.2 1.2-0.3 1.7 -0.1 0.5-0.2 1-0.3 1.7 -0.2 1.1-0.5 2.5-0.8 4.4 0.2 0.3 0.6 0.4 1 0.4 0.5-0.1 1.1-0.3 1.8-0.8 0.7-0.5 1.3-1.2 1.9-2 0.6-0.9 1.1-1.9 1.4-3.2 0.4-1.3 0.6-2.7 0.5-4.4 0-0.9-0.1-1.7-0.4-2.3 -0.2-0.7-0.5-1.2-0.9-1.6 -0.4-0.4-0.8-0.7-1.2-0.9 -0.5-0.2-1-0.2-1.5-0.2 -1.3 0.1-2.5 0.8-3.8 2l-0.3-1.6c0.3-0.4 0.6-0.7 1-1 0.4-0.2 0.8-0.4 1.1-0.6 0.4-0.2 0.8-0.3 1.3-0.3 0.8-0.1 1.6 0 2.4 0.2 0.8 0.2 1.5 0.6 2.1 1.2 0.6 0.6 1.1 1.3 1.5 2.3 0.4 0.9 0.6 2 0.6 3.3 0 0.7-0.1 1.5-0.2 2.3 -0.2 0.8-0.4 1.6-0.7 2.4 -0.3 0.8-0.7 1.6-1.2 2.3 -0.5 0.7-1 1.4-1.6 2s-1.2 1-2 1.4c-0.7 0.4-1.4 0.6-2.2 0.7 -0.2 0-0.5 0-0.8-0.1 -0.2 0-0.5-0.1-0.8-0.2C165.7 34.6 165.3 34.4 165 34.1zM185.2 25.7c-0.3 0.6-0.7 1.2-1.1 1.8 -0.4 0.6-0.9 1.1-1.4 1.6 -0.5 0.5-1 0.9-1.6 1.2 -0.5 0.3-1.1 0.5-1.6 0.5 -0.3 0-0.6 0-0.9-0.1 -0.3-0.1-0.7-0.3-0.9-0.5 -0.3-0.3-0.5-0.6-0.7-1 -0.2-0.4-0.3-1-0.3-1.6 0-0.5 0.1-1.1 0.3-1.7 0.2-0.6 0.5-1.2 0.8-1.7 0.4-0.5 0.8-1 1.2-1.3 0.5-0.4 1-0.6 1.5-0.6 0.5 0 0.8 0 1.1 0.3 0.2 0.2 0.4 0.5 0.4 0.9 0 0.4-0.1 0.8-0.2 1.1 -0.2 0.3-0.3 0.7-0.6 1 -0.2 0.3-0.5 0.6-0.7 0.8 -0.3 0.2-0.5 0.5-0.7 0.7 -0.3 0.2-0.5 0.4-0.7 0.6 -0.2 0.2-0.4 0.4-0.6 0.5 0 0.3 0.1 0.6 0.3 0.8 0.1 0.2 0.3 0.4 0.4 0.5 0.2 0.1 0.3 0.2 0.6 0.2 0.2 0 0.4 0 0.6 0 0.4 0 0.9-0.2 1.3-0.5 0.4-0.3 0.9-0.7 1.3-1.1 0.4-0.4 0.8-0.9 1.1-1.3 0.3-0.5 0.6-0.8 0.9-1.2 0.1-0.1 0.2-0.2 0.3-0.2 0.1 0 0.2 0 0.2 0 0.1 0 0.1 0.1 0.1 0.2C185.3 25.4 185.2 25.5 185.2 25.7zM180 23.2c-0.2 0-0.3 0.1-0.5 0.3 -0.2 0.2-0.4 0.4-0.6 0.7 -0.2 0.3-0.3 0.7-0.5 1.1 -0.1 0.4-0.2 0.9-0.3 1.5 0.1-0.1 0.3-0.3 0.5-0.4 0.2-0.1 0.3-0.3 0.5-0.4 0.5-0.5 0.8-0.9 1-1.2 0.2-0.3 0.3-0.6 0.3-0.9 0-0.2 0-0.4-0.1-0.5C180.3 23.2 180.1 23.2 180 23.2zM193.5 25c-0.2 0.3-0.3 0.6-0.6 1 -0.2 0.4-0.5 0.8-0.8 1.2 -0.3 0.4-0.5 0.8-0.8 1.1s-0.5 0.6-0.6 0.7c-0.1 0.1-0.3 0.2-0.4 0.2 -0.2 0.1-0.3 0.1-0.5 0.1 -0.2 0-0.3 0-0.5 0 -0.2 0-0.3-0.1-0.4-0.1 -0.1-0.1-0.2-0.2-0.3-0.4 -0.1-0.1-0.2-0.3-0.2-0.5 -0.1-0.2-0.1-0.5-0.2-0.8 -0.3 0.5-0.5 1-0.9 1.3 -0.3 0.3-0.7 0.5-1 0.7 -0.4 0.2-0.7 0.3-1.1 0.4 -0.2 0-0.4 0-0.6-0.1 -0.2-0.1-0.4-0.3-0.6-0.5s-0.3-0.6-0.4-1c-0.1-0.4-0.1-0.9 0-1.5 0.1-0.8 0.3-1.5 0.6-2.2 0.3-0.7 0.7-1.3 1.1-1.7 0.4-0.5 0.8-0.9 1.2-1.1 0.4-0.3 0.8-0.4 1.1-0.4 0.3 0 0.6 0.1 0.9 0.2 0.2 0.1 0.3 0.3 0.4 0.5 0.1 0.2 0 0.6-0.2 1 0.2-0.1 0.3-0.1 0.4-0.1 0.1 0 0.2 0 0.3 0 0.1 0 0.1 0 0.2 0 0 0 0 0.1 0 0.2 0 0.1 0 0.2 0 0.5 0 0.2 0 0.5-0.1 0.9 0 0.4-0.1 0.9-0.2 1.5 0 0.1 0 0.2 0 0.3 0 0.1 0 0.2 0 0.3 0 0.1 0 0.2 0 0.3 0 0.1 0 0.3 0 0.5 0 0.1 0 0.2 0 0.4 0 0.1 0.1 0.3 0.1 0.4 0.1 0.1 0.1 0.2 0.2 0.3 0.1 0.1 0.2 0.1 0.4 0.1 0.1 0 0.3-0.1 0.5-0.3 0.2-0.2 0.4-0.4 0.6-0.7 0.2-0.3 0.4-0.6 0.6-0.9 0.2-0.3 0.4-0.6 0.6-0.9s0.4-0.6 0.5-0.8 0.3-0.4 0.3-0.5c0.1-0.1 0.2-0.2 0.3-0.2 0.1 0 0.2 0 0.2 0.1 0.1 0.1 0.1 0.2 0.1 0.3C193.8 24.6 193.7 24.8 193.5 25zM188.1 26.4c0-0.3 0.1-0.6 0.1-0.9 0.1-0.3 0.1-0.7 0.1-1 0-0.3 0.1-0.6 0.1-0.8 0-0.2 0-0.3-0.1-0.3 -0.1 0-0.1 0-0.2 0.1 -0.1 0-0.1 0.1-0.2 0.1 -0.1 0-0.2 0.1-0.3 0.1 0.1-0.2 0.1-0.4 0.1-0.5 0-0.1 0-0.2 0-0.3 0-0.1-0.1-0.2-0.1-0.2 -0.2-0.1-0.4 0-0.7 0.3 -0.3 0.3-0.7 0.9-1 1.8 -0.2 0.3-0.3 0.7-0.4 1.1 -0.1 0.4-0.1 0.7-0.1 1.1 0 0.3 0 0.6 0.1 0.9 0 0.2 0.1 0.4 0.2 0.5 0.2 0.1 0.3 0.2 0.5 0.2 0.2 0 0.4-0.1 0.5-0.2 0.2-0.1 0.3-0.3 0.5-0.4 0.2-0.2 0.3-0.3 0.4-0.5 0.1-0.2 0.2-0.3 0.3-0.5C188 26.6 188.1 26.4 188.1 26.4zM192.3 28.6c0.3-2.4 0.6-4.3 0.8-5.8 0.2-1.5 0.3-2.6 0.4-3.3 0.1-0.9 0.2-1.5 0.2-1.9 0-0.2 0-0.5 0-0.7 0-0.2 0-0.4 0-0.6 0-0.2-0.1-0.4-0.1-0.6 0.1-0.1 0.2-0.1 0.3-0.2 0.1 0 0.2-0.1 0.3-0.1 0.1-0.1 0.3-0.1 0.4-0.1 0.1 0 0.3-0.1 0.4-0.1 0.1 0 0.2 0 0.3 0 0.1 0 0.2 0 0.2 0.1 0.1 0.1 0.1 0.2 0.1 0.4 0 0.2 0 0.4 0 0.6 0 0.2-0.1 0.5-0.1 0.8 -0.1 0.6-0.2 1.4-0.4 2.4 -0.1 0.9-0.3 2.1-0.6 3.7 -0.2 1.5-0.5 3.5-0.9 5.8 -0.1 0.1-0.1 0.1-0.2 0.2 -0.1 0-0.2 0.1-0.2 0.1 -0.1 0-0.2 0-0.3 0 -0.1 0-0.2 0-0.3-0.1 -0.1 0-0.2-0.1-0.2-0.2C192.5 28.9 192.4 28.8 192.3 28.6zM199.5 27.6c0.1 0 0.2 0.1 0.3 0 0.1 0 0.2 0 0.4-0.1 0.1-0.1 0.2-0.1 0.3-0.2 0.1-0.1 0.2-0.2 0.2-0.4 0-0.1 0-0.3-0.1-0.6s-0.2-0.5-0.3-0.8c-0.1-0.3-0.3-0.6-0.4-0.9 -0.2-0.3-0.3-0.6-0.4-0.8 -0.1-0.2-0.2-0.4-0.2-0.5 -0.1-0.1-0.1-0.3-0.2-0.4 -0.1-0.1-0.1-0.2-0.1-0.3 -0.1 0.1-0.1 0.3-0.3 0.5 -0.1 0.2-0.3 0.5-0.4 0.8 -0.2 0.3-0.3 0.5-0.5 0.7 -0.1 0.2-0.2 0.4-0.3 0.5 -0.1 0.1-0.2 0.2-0.3 0.2 -0.1 0-0.2 0-0.2 0 -0.1-0.1-0.1-0.1-0.1-0.2 0-0.1 0-0.2 0.1-0.4 0.1-0.1 0.2-0.3 0.3-0.5 0.1-0.2 0.3-0.5 0.4-0.7 0.1-0.2 0.2-0.5 0.4-0.7 0.1-0.2 0.2-0.3 0.2-0.4 0-0.1 0-0.2-0.1-0.4 -0.1-0.2-0.1-0.3-0.1-0.6 0-0.2 0.1-0.4 0.3-0.7 0.2-0.3 0.3-0.5 0.6-0.7 0.2-0.2 0.5-0.4 0.7-0.5 0.2-0.1 0.5-0.1 0.7-0.1 0.2 0.1 0.3 0.2 0.4 0.3 0.1 0.1 0.2 0.2 0.2 0.4 0 0.1 0 0.2-0.1 0.3 0 0.1-0.1 0.2-0.2 0.4 -0.1 0.2-0.2 0.4-0.4 0.6 0.1 0.3 0.1 0.5 0.2 0.8 0.1 0.2 0.2 0.4 0.3 0.6 0.1 0.2 0.2 0.4 0.3 0.6 0.1 0.2 0.3 0.4 0.4 0.7 0.2 0.2 0.3 0.5 0.4 0.7 0.1 0.2 0.2 0.4 0.3 0.6 0.1 0.2 0.1 0.4 0.1 0.5 0 0.2-0.1 0.5-0.3 0.8 -0.2 0.3-0.4 0.6-0.6 1 -0.2 0.3-0.5 0.6-0.9 0.8 -0.3 0.2-0.7 0.4-1.1 0.4 -0.3 0-0.5 0-0.8-0.2s-0.5-0.3-0.7-0.5c-0.2-0.2-0.3-0.4-0.4-0.6 -0.1-0.2-0.1-0.4-0.1-0.5 0.1-0.2 0.1-0.3 0.2-0.4 0.1-0.1 0.1-0.2 0.3-0.3 0 0 0.1-0.1 0.2-0.2 0.1 0 0.1-0.1 0.3-0.1 0.1 0 0.2-0.1 0.4-0.2 0.2 0.4 0.3 0.7 0.4 0.9 0.1 0.2 0.2 0.4 0.3 0.5C199.4 27.4 199.4 27.5 199.5 27.6z" fill="#FFF"/><rect x="1.6" y="43.8" width="185" height="11.7" fill="none"/><path d="M7.4 44.4l-0.2 1.1c-0.7-0.1-1.3-0.1-1.9-0.1 0 0.3-0.1 1.1-0.2 2.2 -0.1 1.4-0.2 2.6-0.3 3.6H3.3c0.1-0.5 0.2-1.7 0.4-3.6 0.1-0.8 0.2-1.5 0.2-2.2 -0.5 0-1.1 0-2 0.1l0.2-1.1H7.4zM12.5 47.6c0 0.3 0 0.9-0.1 1.7s-0.1 1.5-0.1 1.9l-1.4 0.1c0-0.2 0.1-0.7 0.2-1.5 0.1-0.8 0.2-1.4 0.2-1.8 0-0.4-0.1-0.6-0.2-0.8 -0.1-0.1-0.3-0.2-0.5-0.2 -0.3 0-0.6 0.2-0.9 0.6 -0.3 0.4-0.5 0.9-0.5 1.5 -0.1 0.8-0.1 1.4-0.2 2l-1.3 0.1c0.1-0.5 0.2-1.8 0.5-4 0.1-1.3 0.2-2.5 0.2-3.5l1.5-0.1c0 0.2-0.1 0.7-0.2 1.6s-0.2 1.5-0.3 1.8h0.1c0.4-0.7 1-1.1 1.8-1.1C12 46.1 12.5 46.6 12.5 47.6zM18 47.3c0 1.1-1.1 1.6-3.4 1.6 0 0.5 0.1 0.8 0.3 1 0.2 0.2 0.5 0.3 0.9 0.3 0.6 0 1.2-0.2 1.8-0.5l-0.2 1c-0.5 0.4-1.2 0.5-2 0.5 -0.7 0-1.3-0.2-1.6-0.6 -0.3-0.4-0.5-1-0.5-1.7 0-0.9 0.3-1.7 0.9-2.2 0.6-0.6 1.3-0.8 2-0.8 0.5 0 1 0.1 1.3 0.3C17.8 46.6 18 46.9 18 47.3zM16.8 47.4c0-0.3-0.3-0.5-0.8-0.5 -0.3 0-0.6 0.1-0.9 0.3 -0.3 0.2-0.4 0.5-0.5 0.9C16.1 48.2 16.8 47.9 16.8 47.4zM27 44.4c-0.1 0.5-0.2 1.7-0.4 3.6 -0.2 2.3-1.3 3.5-3.1 3.5 -0.8 0-1.4-0.2-1.8-0.6s-0.6-1.1-0.6-2.1c0-0.2 0-0.5 0-0.8 0.1-1.1 0.2-2.3 0.3-3.6h1.5c-0.1 0.6-0.2 1.7-0.4 3.4 0 0.3 0 0.6 0 0.9 0 0.6 0.1 1.1 0.3 1.3 0.2 0.2 0.5 0.4 0.9 0.4 0.5 0 0.9-0.2 1.2-0.5s0.5-1 0.6-2c0.1-1.2 0.2-2.3 0.2-3.4H27zM29.9 43.7c0 0.2-0.1 0.6-0.2 1.4 -0.1 0.7-0.2 1.5-0.3 2.2 -0.2 1.6-0.3 2.9-0.3 3.9l-1.4 0.1c0-0.1 0.1-0.5 0.2-1.4 0.1-0.8 0.2-1.7 0.3-2.6 0.1-1.4 0.2-2.5 0.2-3.5L29.9 43.7zM33.8 46.3l-0.1 1.1c-0.5 0-0.9 0-1.2 0 -0.1 1-0.2 1.7-0.2 2.1 0 0.4 0 0.6 0.1 0.7s0.2 0.2 0.4 0.2c0.3 0 0.6-0.1 1-0.3l-0.2 1c-0.3 0.3-0.7 0.4-1.2 0.4 -0.5 0-0.9-0.1-1.1-0.4s-0.3-0.7-0.3-1.2c0-0.4 0.1-1.2 0.3-2.5 -0.2 0-0.4 0-0.7 0l0.1-1c0.3 0 0.5 0 0.7 0 0-0.2 0.1-0.7 0.2-1.5l1.2-0.2c-0.1 0.3-0.1 0.9-0.2 1.6C32.8 46.3 33.2 46.3 33.8 46.3zM36.3 46.1c0 0.1 0 0.5-0.1 1.1 -0.1 0.6-0.1 1.1-0.2 1.5 -0.1 0.7-0.1 1.6-0.2 2.5l-1.3 0.1c0.1-0.5 0.2-1.3 0.3-2.6 0.1-0.7 0.1-1.3 0.1-1.9 0-0.2 0-0.4 0-0.6L36.3 46.1zM36.7 44.5c0 0.3-0.1 0.5-0.3 0.7 -0.2 0.2-0.4 0.3-0.7 0.3 -0.2 0-0.4-0.1-0.5-0.2C35.1 45.2 35 45 35 44.8c0-0.3 0.1-0.5 0.3-0.7s0.4-0.3 0.7-0.3C36.5 43.9 36.7 44.1 36.7 44.5zM45 47.6c0 0.4 0 1-0.1 1.8s-0.1 1.4-0.1 1.8l-1.3 0.1c0-0.2 0.1-0.8 0.2-1.6 0.1-0.8 0.2-1.4 0.2-1.7 0-0.4 0-0.6-0.1-0.8 -0.1-0.1-0.2-0.2-0.5-0.2 -0.3 0-0.6 0.2-0.9 0.6s-0.4 0.9-0.5 1.6c-0.1 0.8-0.1 1.5-0.1 2l-1.4 0.1c0-0.2 0.1-0.7 0.2-1.6s0.2-1.4 0.2-1.7c0-0.4 0-0.6-0.1-0.8s-0.2-0.2-0.5-0.2c-0.3 0-0.6 0.2-0.9 0.6 -0.3 0.4-0.4 0.9-0.5 1.5 -0.1 0.8-0.1 1.5-0.2 2L37 51.3c0.2-1.8 0.4-3.1 0.4-3.7 0-0.4 0-0.8-0.1-1.4l1.3-0.1c0 0.3 0 0.6 0 1h0.1c0.4-0.7 1-1.1 1.8-1.1 0.4 0 0.7 0.1 0.9 0.3 0.2 0.2 0.3 0.5 0.3 0.8h0.1c0.4-0.7 1-1.1 1.8-1.1 0.5 0 0.8 0.1 1 0.4C44.9 46.7 45 47.1 45 47.6zM50.6 46c-0.3 1.9-0.4 3.2-0.4 4 0 0.4 0 0.8 0.1 1.2l-1.3 0.1c0-0.3 0-0.6 0-1h-0.1c-0.4 0.7-1 1.1-1.7 1.1 -0.4 0-0.8-0.2-1-0.5s-0.3-0.8-0.3-1.4c0-0.8 0.3-1.6 0.9-2.3 0.6-0.7 1.5-1 2.7-1l0.2-0.2L50.6 46zM49.2 47.1c-0.7 0-1.3 0.2-1.6 0.6 -0.3 0.4-0.5 1-0.5 1.7 0 0.7 0.2 1 0.6 1 0.3 0 0.6-0.2 0.9-0.7s0.4-0.9 0.5-1.3C49.1 48 49.2 47.5 49.2 47.1zM54.6 46.3l-0.1 1.1c-0.5 0-0.9 0-1.2 0 -0.1 1-0.2 1.7-0.2 2.1 0 0.4 0 0.6 0.1 0.7s0.2 0.2 0.4 0.2c0.3 0 0.6-0.1 1-0.3l-0.2 1c-0.3 0.3-0.7 0.4-1.2 0.4 -0.5 0-0.9-0.1-1.1-0.4s-0.3-0.7-0.3-1.2c0-0.4 0.1-1.2 0.3-2.5 -0.2 0-0.4 0-0.7 0l0.1-1c0.3 0 0.5 0 0.7 0 0-0.2 0.1-0.7 0.2-1.5l1.2-0.2c-0.1 0.3-0.1 0.9-0.2 1.6C53.6 46.3 54 46.3 54.6 46.3zM59.9 47.3c0 1.1-1.1 1.6-3.4 1.6 0 0.5 0.1 0.8 0.3 1 0.2 0.2 0.5 0.3 0.9 0.3 0.6 0 1.2-0.2 1.8-0.5l-0.2 1c-0.5 0.4-1.2 0.5-2 0.5 -0.7 0-1.3-0.2-1.6-0.6 -0.3-0.4-0.5-1-0.5-1.7 0-0.9 0.3-1.7 0.9-2.2 0.6-0.6 1.3-0.8 2-0.8 0.5 0 1 0.1 1.3 0.3C59.7 46.6 59.9 46.9 59.9 47.3zM58.7 47.4c0-0.3-0.3-0.5-0.8-0.5 -0.3 0-0.6 0.1-0.9 0.3 -0.3 0.2-0.4 0.5-0.5 0.9C58 48.2 58.7 47.9 58.7 47.4zM67.5 44.4l-0.3 1.2c-0.4-0.2-0.9-0.3-1.4-0.3 -0.8 0-1.3 0.3-1.3 0.8 0 0.2 0.1 0.4 0.3 0.5 0.2 0.1 0.5 0.3 0.9 0.5 1.1 0.5 1.6 1.2 1.6 2.1 0 1.5-1 2.2-3.1 2.2 -0.6 0-1.2-0.1-1.8-0.2l0.4-1.2c0.5 0.2 1 0.3 1.5 0.3 0.5 0 0.8 0 1-0.1 0.4-0.1 0.6-0.4 0.6-0.7 0-0.2-0.1-0.4-0.3-0.6 -0.2-0.2-0.5-0.4-1-0.6 -1-0.5-1.5-1.1-1.5-1.9 0-0.7 0.3-1.3 0.8-1.6 0.5-0.3 1.2-0.5 1.9-0.5C66.5 44.3 67.1 44.3 67.5 44.4zM73.1 47.6c0 0.3 0 0.9-0.1 1.7s-0.1 1.5-0.1 1.9l-1.4 0.1c0-0.2 0.1-0.7 0.2-1.5 0.1-0.8 0.2-1.4 0.2-1.8 0-0.4-0.1-0.6-0.2-0.8 -0.1-0.1-0.3-0.2-0.5-0.2 -0.3 0-0.6 0.2-0.9 0.6 -0.3 0.4-0.5 0.9-0.5 1.5 -0.1 0.8-0.1 1.4-0.2 2l-1.3 0.1c0.1-0.5 0.2-1.8 0.5-4 0.1-1.3 0.2-2.5 0.2-3.5l1.5-0.1c0 0.2-0.1 0.7-0.2 1.6s-0.2 1.5-0.3 1.8h0.1c0.4-0.7 1-1.1 1.8-1.1C72.7 46.1 73.1 46.6 73.1 47.6zM79.1 48.4c0 0.9-0.3 1.6-0.8 2.2 -0.5 0.6-1.3 0.9-2.1 0.9 -0.6 0-1.1-0.2-1.5-0.7 -0.4-0.4-0.6-1-0.6-1.7 0-0.9 0.3-1.6 0.8-2.2 0.5-0.6 1.3-0.9 2.1-0.9 0.6 0 1.1 0.2 1.5 0.6S79.1 47.6 79.1 48.4zM77.8 48.5c0-0.4-0.1-0.8-0.3-1.1S77 47 76.7 47c-0.4 0-0.8 0.2-1 0.6 -0.3 0.4-0.4 0.9-0.4 1.4 0 0.4 0.1 0.8 0.3 1.1s0.4 0.4 0.8 0.4c0.4 0 0.8-0.2 1-0.6C77.6 49.5 77.8 49 77.8 48.5zM84.9 48.1c0 0.9-0.2 1.7-0.7 2.3s-1.1 1-1.9 1c-0.5 0-0.9-0.1-1.1-0.4h-0.1c-0.1 0.9-0.2 1.7-0.2 2.6l-1.4 0c0.4-3.3 0.7-5.3 0.7-6.2 0-0.3 0-0.7-0.1-1.2l1.3-0.1c0 0.3 0 0.6 0 1h0.1c0.4-0.7 1-1.1 1.8-1.1 0.5 0 0.9 0.2 1.2 0.6C84.8 47 84.9 47.5 84.9 48.1zM83.6 48.4c0-0.9-0.3-1.3-0.9-1.3 -0.3 0-0.7 0.2-1 0.7 -0.3 0.5-0.5 0.9-0.5 1.5l-0.1 1c0.3 0.2 0.5 0.2 0.9 0.2 0.5 0 0.9-0.2 1.2-0.6S83.6 48.9 83.6 48.4zM90.8 48.1c0 0.9-0.2 1.7-0.7 2.3s-1.1 1-1.9 1c-0.5 0-0.9-0.1-1.1-0.4h-0.1c-0.1 0.9-0.2 1.7-0.2 2.6l-1.4 0c0.4-3.3 0.7-5.3 0.7-6.2 0-0.3 0-0.7-0.1-1.2l1.3-0.1c0 0.3 0 0.6 0 1h0.1c0.4-0.7 1-1.1 1.8-1.1 0.5 0 0.9 0.2 1.2 0.6C90.6 47 90.8 47.5 90.8 48.1zM89.5 48.4c0-0.9-0.3-1.3-0.9-1.3 -0.3 0-0.7 0.2-1 0.7 -0.3 0.5-0.5 0.9-0.5 1.5l-0.1 1c0.3 0.2 0.5 0.2 0.9 0.2 0.5 0 0.9-0.2 1.2-0.6S89.5 48.9 89.5 48.4zM93.4 46.1c0 0.1 0 0.5-0.1 1.1 -0.1 0.6-0.1 1.1-0.2 1.5 -0.1 0.7-0.1 1.6-0.2 2.5l-1.3 0.1c0.1-0.5 0.2-1.3 0.3-2.6 0.1-0.7 0.1-1.3 0.1-1.9 0-0.2 0-0.4 0-0.6L93.4 46.1zM93.8 44.5c0 0.3-0.1 0.5-0.3 0.7 -0.2 0.2-0.4 0.3-0.7 0.3 -0.2 0-0.4-0.1-0.5-0.2 -0.1-0.1-0.2-0.3-0.2-0.5 0-0.3 0.1-0.5 0.3-0.7s0.4-0.3 0.7-0.3C93.5 43.9 93.8 44.1 93.8 44.5zM99 47.6c0 0.3 0 0.9-0.1 1.7s-0.1 1.5-0.1 1.9l-1.4 0.1c0-0.2 0.1-0.7 0.2-1.5 0.1-0.8 0.2-1.4 0.2-1.8 0-0.4-0.1-0.6-0.2-0.8 -0.1-0.1-0.3-0.2-0.5-0.2 -0.3 0-0.6 0.2-0.9 0.6 -0.3 0.4-0.5 0.9-0.5 1.5 -0.1 0.8-0.1 1.4-0.2 2l-1.3 0.1c0.2-1.8 0.4-3.1 0.4-3.7 0-0.4 0-0.8-0.1-1.4l1.3-0.1c0 0.3 0 0.6 0 1h0.1c0.4-0.7 1-1.1 1.8-1.1C98.5 46.1 99 46.6 99 47.6zM105.4 45.5l-0.2 1c-0.5 0-0.9 0.1-1 0.2l0 0.1c0.2 0.3 0.2 0.5 0.2 0.8 0 0.6-0.2 1.1-0.7 1.4 -0.5 0.3-1 0.5-1.7 0.5 -0.3 0-0.6 0-0.8-0.1 -0.2 0.1-0.3 0.3-0.3 0.5 0 0.2 0.1 0.3 0.2 0.4 0.2 0.1 0.7 0.1 1.8 0.1 1.1 0 1.6 0.4 1.6 1.2 0 0.7-0.3 1.3-0.9 1.8 -0.6 0.4-1.4 0.7-2.2 0.7 -0.7 0-1.2-0.1-1.5-0.3 -0.3-0.2-0.5-0.6-0.5-1 0-0.6 0.3-1.1 1-1.4l0-0.1c-0.2-0.1-0.3-0.4-0.3-0.7 0-0.4 0.2-0.8 0.7-1.1l0-0.1c-0.2-0.1-0.4-0.3-0.5-0.5 -0.1-0.2-0.2-0.5-0.2-0.8 0-0.6 0.2-1.1 0.7-1.4s1.1-0.5 1.7-0.5c0.5 0 0.9 0.1 1.3 0.4h0.1c0.2-0.7 0.5-1 1-1C105 45.4 105.2 45.4 105.4 45.5zM103.3 52c0-0.2-0.1-0.3-0.2-0.4s-0.5-0.1-1-0.1c-0.3 0-0.7 0-1-0.1 -0.4 0.2-0.6 0.6-0.6 1 0 0.6 0.3 0.9 1 0.9 0.5 0 0.9-0.1 1.3-0.3C103.1 52.7 103.3 52.4 103.3 52zM103.1 47.7c0-0.3-0.1-0.5-0.3-0.6 -0.2-0.1-0.4-0.2-0.6-0.2 -0.3 0-0.5 0.1-0.7 0.3 -0.2 0.2-0.3 0.5-0.3 0.8 0 0.3 0.1 0.5 0.3 0.6 0.2 0.1 0.4 0.2 0.6 0.2 0.3 0 0.5-0.1 0.7-0.3C103 48.3 103.1 48 103.1 47.7zM112.7 44.4l-0.2 1.2c-1-0.1-1.9-0.1-2.7-0.1 0 0.4-0.1 1-0.1 1.7 0.7 0 1.4 0 2.2-0.1l-0.1 1.1c-0.8 0-1.5-0.1-2.2-0.1 -0.1 0.7-0.1 1.4-0.2 2 0.9 0 1.9 0 3-0.1l-0.2 1.2h-4.3c0.1-0.5 0.2-1.7 0.4-3.6 0.1-1.3 0.2-2.4 0.2-3.3H112.7zM118.2 46.2c0 0.1-0.3 0.5-0.8 1.1 -0.5 0.6-0.9 1-1.1 1.2l0 0.1c0.2 0.2 0.5 0.7 0.9 1.5 0.4 0.7 0.6 1.2 0.6 1.3l-1.5 0.1c0-0.1-0.1-0.4-0.3-1 -0.2-0.5-0.4-0.9-0.5-1.1h-0.1c-0.1 0.2-0.3 0.5-0.6 1.1 -0.3 0.5-0.4 0.9-0.4 1l-1.5 0.1c0-0.1 0.3-0.5 0.8-1.3 0.6-0.7 0.9-1.2 1.2-1.4l0-0.1c-0.2-0.2-0.4-0.6-0.8-1.2s-0.5-1-0.5-1.1l1.5-0.1c0 0.1 0.1 0.4 0.3 0.8 0.2 0.5 0.3 0.8 0.4 0.9h0.1c0.1-0.1 0.3-0.4 0.5-0.9 0.2-0.5 0.3-0.7 0.3-0.8L118.2 46.2zM123.9 48.1c0 0.9-0.2 1.7-0.7 2.3s-1.1 1-1.9 1c-0.5 0-0.9-0.1-1.1-0.4H120c-0.1 0.9-0.2 1.7-0.2 2.6l-1.4 0c0.4-3.3 0.7-5.3 0.7-6.2 0-0.3 0-0.7-0.1-1.2l1.3-0.1c0 0.3 0 0.6 0 1h0.1c0.4-0.7 1-1.1 1.8-1.1 0.5 0 0.9 0.2 1.2 0.6C123.7 47 123.9 47.5 123.9 48.1zM122.5 48.4c0-0.9-0.3-1.3-0.9-1.3 -0.3 0-0.7 0.2-1 0.7 -0.3 0.5-0.5 0.9-0.5 1.5l-0.1 1c0.3 0.2 0.5 0.2 0.9 0.2 0.5 0 0.9-0.2 1.2-0.6C122.4 49.4 122.5 48.9 122.5 48.4zM129.2 47.3c0 1.1-1.1 1.6-3.4 1.6 0 0.5 0.1 0.8 0.3 1 0.2 0.2 0.5 0.3 0.9 0.3 0.6 0 1.2-0.2 1.8-0.5l-0.2 1c-0.5 0.4-1.2 0.5-2 0.5 -0.7 0-1.3-0.2-1.6-0.6 -0.3-0.4-0.5-1-0.5-1.7 0-0.9 0.3-1.7 0.9-2.2s1.3-0.8 2-0.8c0.5 0 1 0.1 1.3 0.3C129.1 46.6 129.2 46.9 129.2 47.3zM128 47.4c0-0.3-0.3-0.5-0.8-0.5 -0.3 0-0.6 0.1-0.9 0.3 -0.3 0.2-0.4 0.5-0.5 0.9C127.3 48.2 128 47.9 128 47.4zM133.6 46.2l-0.4 1.2c-0.2-0.1-0.5-0.1-0.7-0.1 -0.6 0-1 0.4-1.1 1.1 -0.1 1.1-0.2 2-0.3 2.9l-1.3 0.1c0.2-1.8 0.4-3.1 0.4-3.7 0-0.4 0-0.8-0.1-1.4l1.3-0.1c0 0.2 0 0.5 0 0.7h0.1c0.4-0.5 0.8-0.8 1.3-0.8C133 46.1 133.3 46.1 133.6 46.2zM135.6 46.1c0 0.1 0 0.5-0.1 1.1 -0.1 0.6-0.1 1.1-0.2 1.5 -0.1 0.7-0.1 1.6-0.2 2.5l-1.3 0.1c0.1-0.5 0.2-1.3 0.3-2.6 0.1-0.7 0.1-1.3 0.1-1.9 0-0.2 0-0.4 0-0.6L135.6 46.1zM136.1 44.5c0 0.3-0.1 0.5-0.3 0.7 -0.2 0.2-0.4 0.3-0.7 0.3 -0.2 0-0.4-0.1-0.5-0.2 -0.1-0.1-0.2-0.3-0.2-0.5 0-0.3 0.1-0.5 0.3-0.7s0.4-0.3 0.7-0.3C135.8 43.9 136.1 44.1 136.1 44.5zM141 47.3c0 1.1-1.1 1.6-3.4 1.6 0 0.5 0.1 0.8 0.3 1 0.2 0.2 0.5 0.3 0.9 0.3 0.6 0 1.2-0.2 1.8-0.5l-0.2 1c-0.5 0.4-1.2 0.5-2 0.5 -0.7 0-1.3-0.2-1.6-0.6 -0.3-0.4-0.5-1-0.5-1.7 0-0.9 0.3-1.7 0.9-2.2s1.3-0.8 2-0.8c0.5 0 1 0.1 1.3 0.3C140.9 46.6 141 46.9 141 47.3zM139.8 47.4c0-0.3-0.3-0.5-0.8-0.5 -0.3 0-0.6 0.1-0.9 0.3 -0.3 0.2-0.4 0.5-0.5 0.9C139.1 48.2 139.8 47.9 139.8 47.4zM146.5 47.6c0 0.3 0 0.9-0.1 1.7s-0.1 1.5-0.1 1.9l-1.4 0.1c0-0.2 0.1-0.7 0.2-1.5 0.1-0.8 0.2-1.4 0.2-1.8 0-0.4-0.1-0.6-0.2-0.8 -0.1-0.1-0.3-0.2-0.5-0.2 -0.3 0-0.6 0.2-0.9 0.6 -0.3 0.4-0.5 0.9-0.5 1.5 -0.1 0.8-0.1 1.4-0.2 2l-1.3 0.1c0.2-1.8 0.4-3.1 0.4-3.7 0-0.4 0-0.8-0.1-1.4l1.3-0.1c0 0.3 0 0.6 0 1h0.1c0.4-0.7 1-1.1 1.8-1.1C146 46.1 146.5 46.6 146.5 47.6zM151.4 46.2l-0.3 1.1c-0.3-0.1-0.6-0.1-1-0.1 -0.5 0-0.8 0.2-1.1 0.5 -0.3 0.4-0.4 0.8-0.4 1.2 0 1 0.4 1.5 1.1 1.5 0.4 0 0.9-0.2 1.4-0.5l-0.2 1c-0.4 0.3-1 0.5-1.6 0.5 -0.7 0-1.3-0.2-1.6-0.7 -0.3-0.5-0.5-1-0.5-1.7 0-0.8 0.3-1.5 0.8-2.1 0.6-0.6 1.3-0.9 2.2-0.9C150.8 46.1 151.1 46.1 151.4 46.2zM156.6 47.3c0 1.1-1.1 1.6-3.4 1.6 0 0.5 0.1 0.8 0.3 1 0.2 0.2 0.5 0.3 0.9 0.3 0.6 0 1.2-0.2 1.8-0.5l-0.2 1c-0.5 0.4-1.2 0.5-2 0.5 -0.7 0-1.3-0.2-1.6-0.6 -0.3-0.4-0.5-1-0.5-1.7 0-0.9 0.3-1.7 0.9-2.2 0.6-0.6 1.3-0.8 2-0.8 0.5 0 1 0.1 1.3 0.3C156.4 46.6 156.6 46.9 156.6 47.3zM155.4 47.4c0-0.3-0.3-0.5-0.8-0.5 -0.3 0-0.6 0.1-0.9 0.3 -0.3 0.2-0.4 0.5-0.5 0.9C154.7 48.2 155.4 47.9 155.4 47.4zM158.7 50.2c0 0.3-0.1 0.6-0.3 0.8 -0.2 0.2-0.5 0.3-0.8 0.3 -0.2 0-0.4-0.1-0.5-0.2s-0.2-0.3-0.2-0.5c0-0.3 0.1-0.6 0.3-0.8 0.2-0.2 0.5-0.3 0.8-0.3C158.5 49.5 158.7 49.7 158.7 50.2zM159.3 45c0 0.6-0.3 1.8-0.9 3.4h-0.5c-0.1-1.1-0.1-2-0.1-2.6 0-1.1 0.3-1.6 0.9-1.6C159 44.2 159.3 44.5 159.3 45z" fill="#14778D"/><radialGradient id="SVGID_9_" cx="115.4" cy="-25.8" r="21.3" gradientTransform="matrix(0.9733 -0.2296 -0.2296 -0.9733 -97.4724 4.7714)" gradientUnits="userSpaceOnUse"><stop offset="0.3" stop-color="#E21113"/><stop offset="1" stop-color="#961914"/></radialGradient><path d="M22.8 7c-1.5-2.4-3.8-3.5-5.3-4.9 -2.3-2.2-4.9-2-4.9-2C9.7-0.2 8.1 0.7 7.3 1.8 6.4 2.7 5 4.2 4.4 5c0 0-1.4 2-1.5 3.8 0 0-0.1 1.2-0.1 3.8 0 0.8-0.7 0.6 1 3.2 0 0 0.7 1.4 0.7 2.8l1 0c0 0 1-6.5 1.3-7.1 0 0 0-0.1 0-0.1 0.1-0.1 0.1-0.1 0.2-0.4 0-0.1 0.2-1.5 0.2-1.7 -0.2 0.7-0.2 1.6 0 2.1 0.1 0.2 0.3 0.3 0.3 0.4 -0.1 0.1-0.1 0.1-0.2 0.2 -0.6 0.5-0.6 1-0.5 1.2 0.1 0.3 0.4 0.1 0.1 1.2 -0.3 1.1 0.2 1.5 0.2 1.5 8.1-6.7 17-5.4 17-5.4C23.9 9 23.4 7.9 22.8 7z" fill="url(#SVGID_9_)"/><linearGradient id="SVGID_10_" gradientUnits="userSpaceOnUse" x1="15" y1="0.9" x2="2.7" y2="10.9"><stop offset="0" stop-color="#EB6B5D"/><stop offset="0.3" stop-color="#831714"/><stop offset="0.5" stop-color="#B91514"/><stop offset="1" stop-color="#5E1814"/></linearGradient><path d="M12.1 3.2c0-0.2 0-0.3 0-0.4 0 0 0 0 0 0 0 0 0 0 0 0 0 0 0 0 0 0 0 0 0 0 0 0 0 0 0 0 0 0 0 0 0 0 0 0 0 0 0 0 0 0 0 0 0 0 0 0 0 0 0 0 0 0 0 0 0 0 0 0s0 0 0 0c0 0 0 0 0 0 0 0 0 0 0 0 0 0 0 0 0 0 0 0 0 0 0 0s0 0 0 0 0 0 0 0c0 0 0 0 0 0 0 0 0 0 0 0s0 0 0 0c0 0 0 0 0 0 0 0 0 0 0 0 0 0 0 0 0 0s0 0 0 0c0 0 0 0 0 0s0 0 0 0c0 0 0 0 0 0 0 0 0 0 0 0 0 0 0 0 0 0 0 0 0 0 0 0 0 0 0 0 0 0s0 0 0 0c0 0 0 0 0 0 0 0 0 0 0 0 0 0 0 0 0 0 0 0 0 0 0 0 0 0 0 0 0 0 0 0 0 0 0 0 0 0 0 0 0 0 0 0 0 0 0 0 0 0 0 0 0 0s0 0 0 0c0 0 0 0 0 0 0 0 0 0 0 0 0 0 0 0 0 0 0 0 0 0 0 0 0 0 0 0 0 0 0 0 0 0 0 0 0 0 0 0 0 0 0 0 0 0 0 0 0-0.1-0.1-0.1-0.2-0.2 0 0-0.6-0.5-2.2 1.1 0 0-0.7 0.6-1.4 1.1C8.5 4.4 8.9 4 9.5 3.4c0 0-1.3 1.2-2.4 1.8C6.9 5.3 6.4 5.4 6.3 5.7 5.7 7.4 5.9 8.4 6.2 9 6.5 9.6 7 9.8 7 9.8c0 0 0 0 0 0l0 0c0 0 0 0 0 0l0 0c0 0 0 0 0 0l0 0c0 0 0 0 0 0l0 0c0 0 0 0 0 0h0c0 0 0 0 0 0 0 0 0 0 0 0v0l0 0c0 0 0 0 0 0l0 0c0 0 0 0 0 0 0 0 0 0 0 0 0 0 0 0 0 0 0 0 0 0 0 0v0l0 0c0 0 0 0 0 0 0 0 0 0 0 0 0 0 0 0 0 0l0 0 0 0 0 0c0 0 0 0 0 0l0 0c0 0 0 0 0 0 0 0 0 0 0 0l0 0c0 0 0 0 0 0 0 0 0 0 0 0 0 0 0 0 0 0l0 0 0 0c0 0 0 0 0 0 0 0 0 0 0 0s0 0 0 0c0 0 0 0 0 0s0 0 0 0c0 0 0 0 0 0 0 0 0 0 0 0 0 0 0 0 0 0 0 0 0 0 0 0 0 0 0 0 0 0l0 0c0 0 0 0 0 0l0 0c0 0 0 0 0 0 0.1-0.1 0.8-2.5 0.8-2.7C7.9 6.9 8 6.6 8.2 6.4c0 0 0-0.1 0.1-0.1 0.1-0.1 0.1-0.1 0.2-0.2 0 0 0.1 0 0.1-0.1C8.7 5.9 8.8 5.8 9 5.7c0.1 0 0.1 0 0.2-0.1 0.1 0 0.2-0.1 0.3-0.1 0 0 0.1 0 0.2 0 0.1 0 0.2 0 0.3 0C10.9 5.6 11.9 4 12.1 3.2 12.1 3.2 12.1 3.2 12.1 3.2z" fill="url(#SVGID_10_)"/><linearGradient id="SVGID_12_" gradientUnits="userSpaceOnUse" x1="14.1" y1="-0.1" x2="1.8" y2="9.9"><stop offset="0" stop-color="#EB6B5D"/><stop offset="0.3" stop-color="#831714"/><stop offset="0.5" stop-color="#B91514"/><stop offset="1" stop-color="#5E1814"/></linearGradient><path d="M10 2.5C9.8 2.8 9.6 3 9.6 3c1-1.2 1.8-1 2.2-0.8 -0.2-0.1-0.3-0.2-0.5-0.2 0.2 0 0.4 0.1 0.6 0.2 0 0-0.1 0-0.1-0.1 0 0 0.1 0.1 0.2 0.1 0 0 0.1 0.1 0.1 0.1 0 0-1.1-1.9-2.5 0.6C9.6 3.1 9.7 2.8 10 2.5zM11.3 2c-0.1 0-0.1 0-0.2 0C11.2 2 11.2 2 11.3 2z" fill="url(#SVGID_12_)"/><linearGradient id="SVGID_13_" gradientUnits="userSpaceOnUse" x1="14" y1="-0.4" x2="1.6" y2="9.6"><stop offset="0" stop-color="#EB6B5D"/><stop offset="0.3" stop-color="#831714"/><stop offset="0.5" stop-color="#B91514"/><stop offset="1" stop-color="#5E1814"/></linearGradient><path d="M9.4 3.3c0 0-2.1 1.7-2.6 2C6.8 5.3 8.3 4.8 9.4 3.3z" fill="url(#SVGID_13_)"/><radialGradient id="SVGID_14_" cx="107.6" cy="-20.1" r="1.5" gradientTransform="matrix(0.9733 -0.2296 -0.2296 -0.9733 -97.4724 4.7714)" gradientUnits="userSpaceOnUse"><stop offset="0.1" stop-color="#EB6B5D"/><stop offset="0.4" stop-color="#E21113"/><stop offset="1" stop-color="#CF1514"/></radialGradient><path d="M12.6 0c-1.2-0.1-2.2 0-3 0.3C10 0.8 10.9 1 11.8 0.8c0.6-0.1 1-0.4 1.4-0.8C12.8 0 12.6 0 12.6 0z" fill="url(#SVGID_14_)"/><path d="M6.7 11.5L6.7 11.5 6.7 11.5C6.7 11.5 6.7 11.5 6.7 11.5 6.7 11.5 6.7 11.5 6.7 11.5 6.7 11.5 6.7 11.5 6.7 11.5 6.7 11.5 6.7 11.4 6.7 11.5 6.7 11.4 6.7 11.4 6.7 11.5c0-0.1 0-0.1 0-0.1 0 0 0 0 0 0 0 0 0-0.1 0-0.1C6.6 9.9 6.2 9.4 6.2 9.4c0.5 0.7 0.5 2 0.5 2 -0.6 1.5-1.4 0.5-1.4 0.5 -2-1.9-1.3-0.8-1.3-0.8 1.1 0.9 1.7 3.9 1.9 5.3C6.1 14.4 6.5 11.9 6.7 11.5z" fill="#9D1712"/><linearGradient id="SVGID_15_" gradientUnits="userSpaceOnUse" x1="97.4" y1="-29.9" x2="98.6" y2="-31.6" gradientTransform="matrix(0.9733 -0.2296 -0.2296 -0.9733 -97.4724 4.7714)"><stop offset="0" stop-color="#81140B"/><stop offset="1" stop-color="#9D1712"/></linearGradient><path d="M4 10.9c0 0 1.1 1 1.2 1.9 0 0 0.1 0.9 0.3 0.1 0 0 0.1-0.3 0.2-0.5 0-0.1 0-0.1-0.3-0.2 -0.4-0.1-0.8-0.7-1.2-1.1C4.2 11 3.7 10.5 4 10.9z" fill="url(#SVGID_15_)"/><linearGradient id="SVGID_16_" gradientUnits="userSpaceOnUse" x1="-0.5" y1="20.6" x2="3.8" y2="14.6"><stop offset="0.3" stop-color="#943932"/><stop offset="0.9" stop-color="#B51113"/></linearGradient><path d="M5.3 14.1c0-1.3-0.3-3.7-1.2-4.9 0 0-0.6-0.9-1.2-1 0 0.2 0 0.3-0.1 0.5 0 0-0.1 1.2-0.1 3.8 0 0.8-0.4 1.6 1.3 4.3 0 0 0.4 0.4 0.4 1.8l1.5 0.5C5.1 17.1 5.3 15.8 5.3 14.1z" fill="url(#SVGID_16_)"/><linearGradient id="SVGID_17_" gradientUnits="userSpaceOnUse" x1="0.6" y1="12" x2="5.3" y2="5.4"><stop offset="0.3" stop-color="#943932"/><stop offset="0.9" stop-color="#B51113"/></linearGradient><path d="M7.6 1.9C7.5 2 7.4 2.1 7.4 2.3 7.3 2.4 7.2 2.5 7.1 2.6c0 0 0-0.1 0.1-0.1 0 0 0.7-1.1 0.7-1.2C7.3 2 6.7 2.7 6.4 2.9 6.2 3.1 6 3.3 5.8 3.4 5.6 3.7 5.3 4 4.9 4.4 4.7 4.7 4.5 5 4.5 5 3.7 6.2 3.4 6.6 3.2 7.8c0 0.1 0.7 0 0.8-0.1 0.1-0.1 0.2-0.2 0.3-0.3 0 0 0 0 0 0.1C3.5 8.7 4.5 7.5 4.8 7.1c0.5-0.8 0.7-1.1 1.4-2 0.4-0.6 0.9-0.2 1.2-1.2 0.2-0.6 0.5-2.3 0.8-2.7C7.9 1.3 7.7 1.9 7.6 1.9zM6.3 4.2C6.5 3.8 6.7 3.4 7 2.9 6.7 3.4 6.6 3.9 6.3 4.2 6.3 4.1 6.3 4.2 6.3 4.2z" fill="url(#SVGID_17_)"/><linearGradient id="SVGID_18_" gradientUnits="userSpaceOnUse" x1="102" y1="-30.3" x2="101.4" y2="-31.9" gradientTransform="matrix(0.9733 -0.2296 -0.2296 -0.9733 -97.4724 4.7714)"><stop offset="0" stop-color="#BC1614"/><stop offset="0.4" stop-color="#B71714"/><stop offset="0.5" stop-color="#AA1714"/><stop offset="0.6" stop-color="#9E1B16"/><stop offset="0.7" stop-color="#802419"/><stop offset="0.8" stop-color="#7C251A"/><stop offset="0.8" stop-color="#7F241A"/><stop offset="0.9" stop-color="#882219"/><stop offset="0.9" stop-color="#971E17"/><stop offset="1" stop-color="#AD1915"/><stop offset="1" stop-color="#B71714"/></linearGradient><path d="M7.1 10.5c0 0.1-0.1 0.2-0.1 0.3l0 0c0 0 0 0 0 0 0 0 0 0.1 0 0.1 0 0 0 0 0 0 0 0 0 0.1 0 0.1 0 0 0 0 0 0 0 0 0 0.1 0 0.1 0 0 0 0 0 0 0 0 0 0.1 0 0.1 0 0 0 0 0 0 0 0 0 0.1 0 0.1 0.1 0.1 0.1 0.1 0.1 0.1 0.1 0.1 0.2 0.2 0.2 0.2 -0.1 0.1-0.1 0.1-0.2 0.2 0 0 0 0 0 0l0 0c0 0 0 0 0 0 0 0 0 0-0.1 0.1 0 0 0 0 0 0 0 0 0 0-0.1 0.1l0 0c0 0 0 0 0 0 -0.1 0.1-0.2 0.3-0.3 0.4 4.7 0.4 3.2-0.8 2.5-1C8.2 11.1 7.5 10.8 7.1 10.5z" fill="url(#SVGID_18_)"/><radialGradient id="SVGID_19_" cx="12.9" cy="9.8" r="15.8" gradientUnits="userSpaceOnUse"><stop offset="0" stop-color="#EB6B5D"/><stop offset="0.4" stop-color="#E21113"/><stop offset="0.5" stop-color="#CF1514"/><stop offset="0.8" stop-color="#A81814"/><stop offset="0.9" stop-color="#9C1C16"/><stop offset="1" stop-color="#8A2319"/></radialGradient><path d="M17.5 2.1c-1.2-1.2-2.6-1.7-3.5-1.9C15 1 14.6 4.5 13.5 8.7c-0.6 2.4-0.1 2.5 0 3.4 5.5-2 10.8-1.6 10.8-1.6C23.1 5.5 19.5 4.1 17.5 2.1z" fill="url(#SVGID_19_)"/><radialGradient id="SVGID_20_" cx="104.7" cy="-23.6" r="3.6" gradientTransform="matrix(0.9733 -0.2296 -0.2296 -0.9733 -97.4724 4.7714)" gradientUnits="userSpaceOnUse"><stop offset="0" stop-color="#961914"/><stop offset="1" stop-color="#DC1113"/></radialGradient><path d="M9.6 7c0 0 1.1-0.1 2.1-0.7 0.5-0.3 0.9-0.7 1.1-1.3 0.2-0.6 0.2-1.4-0.1-2.3 0 0-0.4-0.8 0.3-1 0 0-1.1-0.4-0.7 1.4 0 0 0.2 0.4 0 1s-0.6 1.2-1.9 1.7c0 0-1.2 0.3-1.2 1.2C9.3 6.8 9.3 7 9.6 7z" fill="url(#SVGID_20_)"/><radialGradient id="SVGID_21_" cx="104.6" cy="-23.8" r="3.6" gradientTransform="matrix(0.9733 -0.2296 -0.2296 -0.9733 -97.4724 4.7714)" gradientUnits="userSpaceOnUse"><stop offset="0" stop-color="#961914"/><stop offset="0" stop-color="#961914"/><stop offset="1" stop-color="#DC1113"/></radialGradient><path d="M9.3 6.8c0 0 0 0.3 0.4 0.2 0 0 1.1-0.1 2.1-0.7 0.5-0.3 0.9-0.7 1.1-1.3 0.2-0.6 0.2-1.4-0.1-2.3 0 0-0.4-0.8 0.3-1 0 0-0.5-0.2-0.7 0.3 0 0.1-0.1 0.2-0.1 0.3 0 0.2 0 0.5 0.1 0.8 0 0 0.2 0.5 0 1 0 0.1-0.1 0.2-0.1 0.3C12 4.6 11.6 5.1 11 5.4c-0.2 0.1-0.3 0.1-0.5 0.2 0 0-1 0.3-1.2 1 0 0 0 0 0 0C9.3 6.6 9.3 6.7 9.3 6.8z" fill="url(#SVGID_21_)"/><radialGradient id="SVGID_22_" cx="104.5" cy="-24" r="3.6" gradientTransform="matrix(0.9733 -0.2296 -0.2296 -0.9733 -97.4724 4.7714)" gradientUnits="userSpaceOnUse"><stop offset="0" stop-color="#971914"/><stop offset="0" stop-color="#971914"/><stop offset="1" stop-color="#DC1113"/></radialGradient><path d="M9.3 6.8c0 0 0 0.2 0.4 0.2 0 0 1.1-0.1 2.1-0.7 0.5-0.3 0.9-0.7 1.1-1.3 0.2-0.6 0.2-1.4-0.1-2.3 0 0-0.4-0.8 0.3-1 0 0-0.5-0.2-0.7 0.3 0 0.1-0.1 0.2-0.1 0.3 0 0.2 0 0.5 0.1 0.8 0 0 0.2 0.5 0 1 0 0.1-0.1 0.2-0.1 0.3C12 4.7 11.6 5.1 11 5.4c-0.2 0.1-0.3 0.1-0.5 0.2 0 0-1.1 0.3-1.2 1 0 0 0 0 0 0C9.3 6.6 9.3 6.7 9.3 6.8z" fill="url(#SVGID_22_)"/><radialGradient id="SVGID_23_" cx="104.4" cy="-24.2" r="3.6" gradientTransform="matrix(0.9733 -0.2296 -0.2296 -0.9733 -97.4724 4.7714)" gradientUnits="userSpaceOnUse"><stop offset="0" stop-color="#971914"/><stop offset="0" stop-color="#971914"/><stop offset="1" stop-color="#DC1113"/></radialGradient><path d="M9.3 6.8c0 0 0 0.3 0.4 0.2 0 0 1.1-0.1 2.1-0.7 0.5-0.3 0.9-0.7 1.1-1.3 0.2-0.6 0.2-1.4-0.1-2.3 0 0-0.4-0.8 0.3-1 0 0-0.5-0.2-0.7 0.3 0 0.1 0 0.2-0.1 0.3 0 0.2 0 0.5 0.1 0.8 0 0 0.2 0.5 0 1 0 0.1-0.1 0.2-0.1 0.3C12 4.7 11.7 5.1 11 5.4c-0.2 0.1-0.3 0.1-0.5 0.2 -0.1 0-1.1 0.3-1.2 0.9 0 0 0 0 0 0C9.3 6.6 9.3 6.7 9.3 6.8z" fill="url(#SVGID_23_)"/><radialGradient id="SVGID_24_" cx="104.3" cy="-24.3" r="3.6" gradientTransform="matrix(0.9733 -0.2296 -0.2296 -0.9733 -97.4724 4.7714)" gradientUnits="userSpaceOnUse"><stop offset="0" stop-color="#981914"/><stop offset="0" stop-color="#981914"/><stop offset="1" stop-color="#DC1113"/></radialGradient><path d="M9.3 6.8c0 0 0 0.2 0.4 0.2 0 0 1.1-0.1 2.1-0.7 0.5-0.3 0.9-0.7 1.1-1.3 0.2-0.6 0.2-1.4-0.1-2.3 0 0-0.4-0.8 0.3-1 0 0-0.5-0.2-0.7 0.3 0 0.1 0 0.2-0.1 0.3 0 0.2 0 0.5 0.1 0.8 0 0 0.2 0.5 0 1 0 0.1-0.1 0.2-0.1 0.3C12 4.7 11.7 5.1 11 5.4c-0.2 0.1-0.3 0.1-0.5 0.2 -0.1 0-1.1 0.3-1.2 0.9 0 0 0 0 0 0C9.3 6.6 9.3 6.7 9.3 6.8z" fill="url(#SVGID_24_)"/><radialGradient id="SVGID_25_" cx="104.2" cy="-24.5" r="3.6" gradientTransform="matrix(0.9733 -0.2296 -0.2296 -0.9733 -97.4724 4.7714)" gradientUnits="userSpaceOnUse"><stop offset="0" stop-color="#981914"/><stop offset="0" stop-color="#981914"/><stop offset="1" stop-color="#DC1113"/></radialGradient><path d="M9.3 6.8c0 0 0 0.2 0.4 0.2 0 0 1.1-0.1 2.1-0.7 0.5-0.3 0.9-0.7 1.1-1.3 0.2-0.6 0.2-1.4-0.1-2.3 0 0-0.4-0.8 0.3-1 0 0-0.5-0.2-0.7 0.3 0 0.1 0 0.2 0 0.3 0 0.2 0 0.5 0.1 0.8 0 0.1 0.1 0.5 0 1 0 0.1-0.1 0.2-0.1 0.3C12 4.7 11.7 5.1 11 5.4c-0.2 0.1-0.3 0.2-0.5 0.2 -0.1 0-1.1 0.3-1.2 0.9 0 0 0 0 0 0C9.3 6.6 9.3 6.7 9.3 6.8z" fill="url(#SVGID_25_)"/><radialGradient id="SVGID_26_" cx="104.1" cy="-24.7" r="3.6" gradientTransform="matrix(0.9733 -0.2296 -0.2296 -0.9733 -97.4724 4.7714)" gradientUnits="userSpaceOnUse"><stop offset="0" stop-color="#991914"/><stop offset="0" stop-color="#991914"/><stop offset="1" stop-color="#DC1113"/></radialGradient><path d="M9.3 6.8c0 0 0 0.2 0.4 0.2 0 0 1.1-0.1 2.1-0.7 0.5-0.3 0.9-0.7 1.1-1.3 0.2-0.6 0.2-1.4-0.1-2.3 0 0-0.4-0.8 0.3-1 0 0-0.5-0.2-0.7 0.3 0 0.1 0 0.2 0 0.3 0 0.2 0 0.5 0.1 0.8 0 0.1 0.1 0.5 0 1 0 0.1-0.1 0.2-0.1 0.3C12 4.7 11.7 5.1 11 5.5c-0.2 0.1-0.3 0.2-0.5 0.2 -0.1 0-1.1 0.3-1.2 0.9 0 0 0 0 0 0C9.3 6.6 9.3 6.7 9.3 6.8z" fill="url(#SVGID_26_)"/><radialGradient id="SVGID_27_" cx="104" cy="-24.9" r="3.6" gradientTransform="matrix(0.9733 -0.2296 -0.2296 -0.9733 -97.4724 4.7714)" gradientUnits="userSpaceOnUse"><stop offset="0" stop-color="#991914"/><stop offset="0" stop-color="#991914"/><stop offset="1" stop-color="#DC1113"/></radialGradient><path d="M9.3 6.8c0 0 0 0.2 0.4 0.2 0 0 1.1-0.1 2.1-0.7 0.5-0.3 0.9-0.7 1.1-1.3 0.2-0.6 0.2-1.4-0.1-2.3 0 0-0.4-0.8 0.3-1 0 0-0.5-0.2-0.7 0.3 0 0.1 0 0.2 0 0.3 0 0.2 0 0.5 0.1 0.8 0 0.1 0.1 0.5 0 1 0 0.1-0.1 0.2-0.1 0.3C12 4.7 11.7 5.1 11 5.5c-0.2 0.1-0.3 0.2-0.5 0.2C10.4 5.8 9.4 6 9.3 6.6c0 0 0 0 0 0C9.3 6.6 9.3 6.7 9.3 6.8z" fill="url(#SVGID_27_)"/><radialGradient id="SVGID_28_" cx="103.9" cy="-25" r="3.7" gradientTransform="matrix(0.9733 -0.2296 -0.2296 -0.9733 -97.4724 4.7714)" gradientUnits="userSpaceOnUse"><stop offset="0" stop-color="#9A1914"/><stop offset="0" stop-color="#9A1914"/><stop offset="1" stop-color="#DC1113"/></radialGradient><path d="M9.3 6.8c0 0 0 0.3 0.4 0.2 0 0 1.1-0.1 2.1-0.7 0.5-0.3 0.9-0.7 1.1-1.3 0.2-0.6 0.2-1.4-0.1-2.3 0 0-0.4-0.8 0.3-1 0 0-0.5-0.2-0.7 0.3 0 0.1 0 0.2 0 0.3 0 0.2 0 0.5 0.1 0.8 0 0.1 0.1 0.5 0 1 0 0.1-0.1 0.2-0.1 0.3C12 4.7 11.7 5.1 11 5.5c-0.2 0.1-0.3 0.2-0.5 0.2C10.4 5.8 9.4 6 9.3 6.6c0 0 0 0 0 0C9.3 6.6 9.3 6.7 9.3 6.8z" fill="url(#SVGID_28_)"/><radialGradient id="SVGID_29_" cx="103.8" cy="-25.2" r="3.7" gradientTransform="matrix(0.9733 -0.2296 -0.2296 -0.9733 -97.4724 4.7714)" gradientUnits="userSpaceOnUse"><stop offset="0" stop-color="#9A1914"/><stop offset="0" stop-color="#9A1914"/><stop offset="1" stop-color="#DC1113"/></radialGradient><path d="M9.3 6.8c0 0 0 0.2 0.4 0.2 0 0 1.1-0.1 2.1-0.7 0.5-0.3 0.9-0.7 1.1-1.3 0.2-0.6 0.2-1.4-0.1-2.3 0 0-0.4-0.8 0.3-1 0 0-0.5-0.2-0.7 0.3 0 0.1 0 0.2 0 0.3 0 0.2 0 0.5 0.1 0.8 0 0.1 0.1 0.5 0 1 0 0.1-0.1 0.2-0.1 0.3 -0.2 0.4-0.6 0.8-1.2 1.2 -0.2 0.1-0.3 0.2-0.5 0.2C10.3 5.8 9.4 6 9.3 6.6c0 0 0 0 0 0C9.3 6.6 9.3 6.7 9.3 6.8z" fill="url(#SVGID_29_)"/><radialGradient id="SVGID_30_" cx="103.7" cy="-25.4" r="3.8" gradientTransform="matrix(0.9733 -0.2296 -0.2296 -0.9733 -97.4724 4.7714)" gradientUnits="userSpaceOnUse"><stop offset="0" stop-color="#9A1914"/><stop offset="0" stop-color="#9A1914"/><stop offset="1" stop-color="#DC1113"/></radialGradient><path d="M9.3 6.8c0 0 0 0.3 0.4 0.2 0 0 1.1-0.1 2.1-0.7 0.5-0.3 0.9-0.7 1.1-1.3 0.2-0.6 0.2-1.4-0.1-2.3 0 0-0.4-0.8 0.3-1 0 0-0.5-0.2-0.7 0.3 0 0.1 0 0.2 0 0.3 0 0.2 0.1 0.5 0.1 0.8 0 0.1 0.1 0.5 0 1 0 0.1-0.1 0.2-0.1 0.3 -0.2 0.4-0.6 0.9-1.2 1.2 -0.2 0.1-0.3 0.2-0.5 0.2C10.3 5.8 9.4 6 9.3 6.6c0 0 0 0 0 0C9.3 6.6 9.3 6.7 9.3 6.8z" fill="url(#SVGID_30_)"/><radialGradient id="SVGID_31_" cx="103.6" cy="-25.6" r="3.8" gradientTransform="matrix(0.9733 -0.2296 -0.2296 -0.9733 -97.4724 4.7714)" gradientUnits="userSpaceOnUse"><stop offset="0" stop-color="#9B1914"/><stop offset="0" stop-color="#9B1914"/><stop offset="1" stop-color="#DC1113"/></radialGradient><path d="M9.3 6.8c0 0 0 0.2 0.4 0.2 0 0 1.1-0.1 2.1-0.7 0.5-0.3 0.9-0.7 1.1-1.3 0.2-0.6 0.2-1.4-0.1-2.3 0 0-0.4-0.8 0.3-1 0 0-0.5-0.2-0.7 0.3 0 0.1 0 0.2 0 0.3 0 0.2 0.1 0.5 0.1 0.8 0 0.1 0.1 0.5 0 1 0 0.1-0.1 0.2-0.1 0.3 -0.2 0.4-0.6 0.9-1.2 1.2 -0.2 0.1-0.3 0.2-0.5 0.2 -0.2 0.1-1.2 0.3-1.3 0.8 0 0 0 0 0 0C9.3 6.6 9.3 6.7 9.3 6.8z" fill="url(#SVGID_31_)"/><radialGradient id="SVGID_32_" cx="103.5" cy="-25.8" r="3.9" gradientTransform="matrix(0.9733 -0.2296 -0.2296 -0.9733 -97.4724 4.7714)" gradientUnits="userSpaceOnUse"><stop offset="0" stop-color="#9B1914"/><stop offset="0" stop-color="#9B1914"/><stop offset="1" stop-color="#DC1113"/></radialGradient><path d="M9.3 6.8c0 0 0 0.2 0.4 0.2 0 0 1.1-0.1 2.1-0.7 0.5-0.3 0.9-0.7 1.1-1.3 0.2-0.6 0.2-1.4-0.1-2.3 0 0-0.4-0.8 0.3-1 0 0-0.5-0.2-0.7 0.3 0 0.1 0 0.2 0 0.3 0 0.2 0.1 0.5 0.1 0.9 0 0.1 0.1 0.5 0 1 0 0.1-0.1 0.2-0.1 0.3 -0.2 0.4-0.6 0.9-1.2 1.2 -0.2 0.1-0.3 0.2-0.5 0.2 -0.2 0.1-1.2 0.3-1.3 0.8 0 0 0 0 0 0C9.3 6.6 9.3 6.7 9.3 6.8z" fill="url(#SVGID_32_)"/><radialGradient id="SVGID_33_" cx="103.4" cy="-25.9" r="4" gradientTransform="matrix(0.9733 -0.2296 -0.2296 -0.9733 -97.4724 4.7714)" gradientUnits="userSpaceOnUse"><stop offset="0" stop-color="#9C1914"/><stop offset="0" stop-color="#9C1914"/><stop offset="1" stop-color="#DC1113"/></radialGradient><path d="M9.3 6.8c0 0 0 0.2 0.4 0.2 0 0 1.1-0.1 2.1-0.7 0.5-0.3 0.9-0.7 1.1-1.3 0.2-0.6 0.2-1.4-0.1-2.3 0 0-0.4-0.8 0.3-1 0 0-0.5-0.2-0.7 0.3 0 0.1 0 0.2 0 0.3 0 0.2 0.1 0.5 0.1 0.9 0 0.1 0.1 0.6 0 1 0 0.1-0.1 0.2-0.1 0.3 -0.2 0.5-0.6 0.9-1.2 1.2 -0.2 0.1-0.3 0.2-0.5 0.2 -0.3 0.1-1.2 0.3-1.3 0.8 0 0 0 0 0 0C9.3 6.6 9.3 6.7 9.3 6.8z" fill="url(#SVGID_33_)"/><radialGradient id="SVGID_34_" cx="103.3" cy="-26.1" r="4" gradientTransform="matrix(0.9733 -0.2296 -0.2296 -0.9733 -97.4724 4.7714)" gradientUnits="userSpaceOnUse"><stop offset="0" stop-color="#9C1914"/><stop offset="0" stop-color="#9C1914"/><stop offset="1" stop-color="#DC1113"/></radialGradient><path d="M9.3 6.8c0 0 0 0.2 0.4 0.2 0 0 1.1-0.1 2.1-0.7 0.5-0.3 0.9-0.7 1.1-1.3 0.2-0.6 0.2-1.4-0.1-2.3 0 0-0.4-0.8 0.3-1 0 0-0.5-0.2-0.7 0.3 0 0.1 0 0.2 0 0.3 0 0.2 0.1 0.5 0.1 0.9 0 0.1 0.1 0.6 0 1 0 0.1-0.1 0.2-0.1 0.3 -0.2 0.5-0.6 0.9-1.2 1.2 -0.2 0.1-0.3 0.2-0.5 0.2 -0.3 0.1-1.2 0.3-1.3 0.8 0 0 0 0 0 0C9.3 6.6 9.3 6.7 9.3 6.8z" fill="url(#SVGID_34_)"/><radialGradient id="SVGID_35_" cx="103.2" cy="-26.3" r="4.1" gradientTransform="matrix(0.9733 -0.2296 -0.2296 -0.9733 -97.4724 4.7714)" gradientUnits="userSpaceOnUse"><stop offset="0" stop-color="#9D1914"/><stop offset="0" stop-color="#9D1914"/><stop offset="1" stop-color="#DC1113"/></radialGradient><path d="M9.3 6.8c0 0 0 0.2 0.4 0.2 0 0 1.1-0.1 2.1-0.7 0.5-0.3 0.9-0.7 1.1-1.3 0.2-0.6 0.2-1.4-0.1-2.3 0 0-0.4-0.8 0.3-1 0 0-0.5-0.2-0.7 0.3 0 0.1 0 0.2 0 0.3 0 0.2 0.1 0.5 0.1 0.9 0 0.2 0.1 0.6 0 1 0 0.1-0.1 0.2-0.1 0.3 -0.2 0.5-0.6 0.9-1.2 1.2 -0.2 0.1-0.3 0.2-0.5 0.2 -0.3 0.1-1.2 0.3-1.3 0.8 0 0 0 0 0 0C9.3 6.6 9.3 6.7 9.3 6.8z" fill="url(#SVGID_35_)"/><radialGradient id="SVGID_36_" cx="103.1" cy="-26.5" r="4.2" gradientTransform="matrix(0.9733 -0.2296 -0.2296 -0.9733 -97.4724 4.7714)" gradientUnits="userSpaceOnUse"><stop offset="0" stop-color="#9D1914"/><stop offset="0" stop-color="#9D1914"/><stop offset="1" stop-color="#DC1113"/></radialGradient><path d="M9.3 6.8c0 0 0 0.2 0.4 0.2 0 0 1.1-0.1 2.1-0.7 0.5-0.3 0.9-0.7 1.1-1.3 0.2-0.6 0.2-1.4-0.1-2.3 0 0-0.4-0.8 0.3-1 0 0-0.5-0.2-0.7 0.3 0 0.1 0 0.2 0 0.3 0 0.2 0.1 0.5 0.1 0.9 0 0.2 0.1 0.6 0 1 0 0.1-0.1 0.2-0.1 0.3 -0.2 0.5-0.6 0.9-1.2 1.2 -0.2 0.1-0.3 0.2-0.5 0.2 -0.3 0.1-1.2 0.3-1.3 0.8 0 0 0 0 0 0C9.3 6.6 9.3 6.7 9.3 6.8z" fill="url(#SVGID_36_)"/><radialGradient id="SVGID_37_" cx="103" cy="-26.6" r="4.3" gradientTransform="matrix(0.9733 -0.2296 -0.2296 -0.9733 -97.4724 4.7714)" gradientUnits="userSpaceOnUse"><stop offset="0" stop-color="#9D1914"/><stop offset="0" stop-color="#9D1914"/><stop offset="1" stop-color="#DC1113"/></radialGradient><path d="M9.3 6.8c0 0 0 0.2 0.4 0.2 0 0 1.1-0.1 2.1-0.7 0.5-0.3 0.9-0.7 1.1-1.3 0.2-0.6 0.2-1.4-0.1-2.3 0 0-0.4-0.8 0.3-1 0 0-0.5-0.2-0.7 0.3 0 0.1 0 0.2 0 0.3 0 0.2 0.1 0.5 0.1 0.9 0 0.2 0.1 0.6 0 1 0 0.1-0.1 0.2-0.1 0.3 -0.2 0.5-0.6 0.9-1.2 1.2 -0.2 0.1-0.3 0.2-0.5 0.2C10.3 6 9.3 6.2 9.3 6.6c0 0 0 0 0 0C9.3 6.6 9.3 6.7 9.3 6.8z" fill="url(#SVGID_37_)"/><radialGradient id="SVGID_38_" cx="102.9" cy="-26.8" r="4.4" gradientTransform="matrix(0.9733 -0.2296 -0.2296 -0.9733 -97.4724 4.7714)" gradientUnits="userSpaceOnUse"><stop offset="0" stop-color="#9E1914"/><stop offset="0" stop-color="#9E1914"/><stop offset="1" stop-color="#DC1113"/></radialGradient><path d="M9.3 6.8c0 0 0 0.2 0.4 0.2 0 0 1.1-0.1 2.1-0.7 0.5-0.3 0.9-0.7 1.1-1.3 0.2-0.6 0.2-1.4-0.1-2.3 0 0-0.4-0.8 0.3-1 0 0-0.5-0.2-0.7 0.3 0 0.1 0 0.2 0 0.3 0 0.3 0.1 0.5 0.1 0.9 0 0.2 0.1 0.6 0 1 0 0.1-0.1 0.2-0.1 0.3 -0.2 0.5-0.6 0.9-1.2 1.2 -0.2 0.1-0.3 0.2-0.5 0.2C10.3 6 9.3 6.2 9.3 6.6c0 0 0 0 0 0C9.3 6.6 9.3 6.7 9.3 6.8z" fill="url(#SVGID_38_)"/><radialGradient id="SVGID_39_" cx="102.8" cy="-27" r="4.5" gradientTransform="matrix(0.9733 -0.2296 -0.2296 -0.9733 -97.4724 4.7714)" gradientUnits="userSpaceOnUse"><stop offset="0" stop-color="#9E1914"/><stop offset="0" stop-color="#9E1914"/><stop offset="1" stop-color="#DC1113"/></radialGradient><path d="M9.3 6.8c0 0 0 0.2 0.4 0.2 0 0 1.1-0.1 2.1-0.7 0.5-0.3 0.9-0.7 1.1-1.3 0.2-0.6 0.2-1.4-0.1-2.3 0 0-0.4-0.8 0.3-1 0 0-0.5-0.2-0.7 0.3 0 0.1 0 0.2 0 0.3 0 0.3 0.1 0.5 0.1 0.9 0 0.2 0.1 0.6 0 1.1 0 0.1-0.1 0.2-0.1 0.3 -0.2 0.5-0.6 0.9-1.2 1.2 -0.2 0.1-0.3 0.2-0.5 0.3C10.2 6 9.3 6.2 9.3 6.6c0 0 0 0 0 0C9.3 6.6 9.3 6.7 9.3 6.8z" fill="url(#SVGID_39_)"/><radialGradient id="SVGID_40_" cx="102.7" cy="-27.2" r="4.6" gradientTransform="matrix(0.9733 -0.2296 -0.2296 -0.9733 -97.4724 4.7714)" gradientUnits="userSpaceOnUse"><stop offset="0" stop-color="#9F1914"/><stop offset="0" stop-color="#9F1914"/><stop offset="1" stop-color="#DC1113"/></radialGradient><path d="M9.3 6.8c0 0 0 0.2 0.4 0.2 0 0 1.1-0.1 2.1-0.7 0.5-0.3 0.9-0.7 1.1-1.3 0.2-0.6 0.2-1.4-0.1-2.3 0 0-0.4-0.8 0.3-1 0 0-0.5-0.2-0.7 0.3 0 0.1 0 0.2 0 0.3 0 0.3 0.1 0.5 0.2 0.9 0 0.2 0.1 0.6 0 1.1 0 0.1-0.1 0.2-0.1 0.3 -0.2 0.5-0.6 0.9-1.2 1.2 -0.2 0.1-0.3 0.2-0.5 0.3C10.2 6 9.3 6.2 9.3 6.6c0 0 0 0 0 0C9.3 6.6 9.3 6.7 9.3 6.8z" fill="url(#SVGID_40_)"/><radialGradient id="SVGID_41_" cx="102.6" cy="-27.4" r="4.7" gradientTransform="matrix(0.9733 -0.2296 -0.2296 -0.9733 -97.4724 4.7714)" gradientUnits="userSpaceOnUse"><stop offset="0" stop-color="#9F1814"/><stop offset="0" stop-color="#9F1814"/><stop offset="1" stop-color="#DC1113"/></radialGradient><path d="M9.3 6.8c0 0 0 0.2 0.4 0.2 0 0 1.1-0.1 2.1-0.7 0.5-0.3 0.9-0.7 1.1-1.3 0.2-0.6 0.2-1.4-0.1-2.3 0 0-0.4-0.8 0.3-1 0 0-0.5-0.2-0.7 0.3 0 0.1 0 0.3 0 0.3 0 0.3 0.1 0.5 0.2 0.9 0 0.2 0.1 0.6 0 1.1 0 0.1-0.1 0.2-0.1 0.3 -0.2 0.5-0.6 0.9-1.2 1.2 -0.2 0.1-0.3 0.2-0.5 0.3 -0.4 0.2-1.3 0.4-1.4 0.7 0 0 0 0 0 0C9.3 6.6 9.3 6.7 9.3 6.8z" fill="url(#SVGID_41_)"/><radialGradient id="SVGID_42_" cx="102.5" cy="-27.5" r="4.9" gradientTransform="matrix(0.9733 -0.2296 -0.2296 -0.9733 -97.4724 4.7714)" gradientUnits="userSpaceOnUse"><stop offset="0" stop-color="#A01814"/><stop offset="0" stop-color="#A01814"/><stop offset="1" stop-color="#DC1113"/></radialGradient><path d="M9.3 6.8c0 0 0 0.2 0.4 0.2 0 0 1.1-0.1 2.1-0.7 0.5-0.3 0.9-0.7 1.1-1.3 0.2-0.6 0.2-1.4-0.1-2.3 0 0-0.4-0.8 0.3-1 0 0-0.5-0.2-0.7 0.3 0 0.1 0 0.3 0 0.3 0.1 0.3 0.1 0.5 0.2 0.9 0 0.2 0.1 0.6 0 1.1 0 0.1-0.1 0.2-0.1 0.3 -0.2 0.5-0.6 0.9-1.2 1.2 -0.2 0.1-0.3 0.2-0.5 0.3 -0.4 0.2-1.3 0.4-1.4 0.7 0 0 0 0 0 0C9.3 6.6 9.3 6.7 9.3 6.8z" fill="url(#SVGID_42_)"/><radialGradient id="SVGID_43_" cx="102.4" cy="-27.7" r="5" gradientTransform="matrix(0.9733 -0.2296 -0.2296 -0.9733 -97.4724 4.7714)" gradientUnits="userSpaceOnUse"><stop offset="0" stop-color="#A01814"/><stop offset="0" stop-color="#A01814"/><stop offset="1" stop-color="#DC1113"/></radialGradient><path d="M9.3 6.8c0 0 0 0.2 0.4 0.2 0 0 1.1-0.1 2.1-0.7 0.5-0.3 0.9-0.7 1.1-1.3 0.2-0.6 0.2-1.4-0.1-2.3 0 0-0.4-0.8 0.3-1 0 0-0.5-0.2-0.7 0.3 0 0.1 0 0.3 0 0.3 0.1 0.3 0.1 0.5 0.2 0.9 0 0.2 0.1 0.6 0 1.1 0 0.1-0.1 0.2-0.1 0.3 -0.2 0.5-0.6 0.9-1.2 1.2 -0.2 0.1-0.3 0.2-0.5 0.3 -0.5 0.2-1.3 0.4-1.4 0.7 0 0 0 0 0 0C9.3 6.6 9.3 6.7 9.3 6.8z" fill="url(#SVGID_43_)"/><radialGradient id="SVGID_44_" cx="102.3" cy="-27.9" r="5.1" gradientTransform="matrix(0.9733 -0.2296 -0.2296 -0.9733 -97.4724 4.7714)" gradientUnits="userSpaceOnUse"><stop offset="0" stop-color="#A11814"/><stop offset="0" stop-color="#A11814"/><stop offset="1" stop-color="#DC1113"/></radialGradient><path d="M9.3 6.8c0 0 0 0.2 0.4 0.2 0 0 1.1-0.1 2.1-0.7 0.5-0.3 0.9-0.7 1.1-1.3 0.2-0.6 0.2-1.4-0.1-2.3 0 0-0.4-0.8 0.3-1 0 0-0.5-0.2-0.7 0.3 0 0.1 0 0.3 0 0.3 0.1 0.3 0.1 0.6 0.2 0.9 0 0.2 0.1 0.6 0 1.1 0 0.1-0.1 0.2-0.1 0.3 -0.2 0.5-0.6 0.9-1.2 1.2 -0.2 0.1-0.3 0.2-0.5 0.3 -0.5 0.2-1.3 0.4-1.4 0.7 0 0 0 0 0 0C9.3 6.6 9.3 6.7 9.3 6.8z" fill="url(#SVGID_44_)"/><radialGradient id="SVGID_45_" cx="102.2" cy="-28.1" r="5.3" gradientTransform="matrix(0.9733 -0.2296 -0.2296 -0.9733 -97.4724 4.7714)" gradientUnits="userSpaceOnUse"><stop offset="0" stop-color="#A11814"/><stop offset="0" stop-color="#A11814"/><stop offset="1" stop-color="#DC1113"/></radialGradient><path d="M9.3 6.8c0 0 0 0.2 0.4 0.2 0 0 1.1-0.1 2.1-0.7 0.5-0.3 0.9-0.7 1.1-1.3 0.2-0.6 0.2-1.4-0.1-2.3 0 0-0.4-0.8 0.3-1 0 0-0.5-0.2-0.7 0.3 0 0.1 0 0.3 0 0.3 0.1 0.3 0.1 0.6 0.2 0.9 0 0.3 0.1 0.7 0 1.1 0 0.1-0.1 0.2-0.1 0.3 -0.2 0.5-0.6 0.9-1.2 1.3 -0.2 0.1-0.3 0.2-0.5 0.3 -0.5 0.2-1.4 0.4-1.4 0.6 0 0 0 0 0 0C9.3 6.6 9.3 6.7 9.3 6.8z" fill="url(#SVGID_45_)"/><radialGradient id="SVGID_46_" cx="102.1" cy="-28.2" r="5.4" gradientTransform="matrix(0.9733 -0.2296 -0.2296 -0.9733 -97.4724 4.7714)" gradientUnits="userSpaceOnUse"><stop offset="0" stop-color="#A11814"/><stop offset="0" stop-color="#A11814"/><stop offset="1" stop-color="#DC1113"/></radialGradient><path d="M9.3 6.8c0 0 0 0.2 0.4 0.2 0 0 1.1-0.1 2.1-0.7 0.5-0.3 0.9-0.7 1.1-1.3 0.2-0.6 0.2-1.4-0.1-2.3 0 0-0.4-0.8 0.3-1 0 0-0.5-0.2-0.7 0.3 0 0.1 0.1 0.3 0.1 0.3 0.1 0.3 0.1 0.6 0.2 0.9 0 0.3 0.1 0.7 0 1.1 0 0.1-0.1 0.2-0.1 0.3 -0.2 0.5-0.6 0.9-1.2 1.3 -0.2 0.1-0.3 0.2-0.5 0.3 -0.5 0.2-1.4 0.4-1.4 0.6 0 0 0 0 0 0C9.3 6.6 9.3 6.7 9.3 6.8z" fill="url(#SVGID_46_)"/><radialGradient id="SVGID_47_" cx="102" cy="-28.4" r="5.5" gradientTransform="matrix(0.9733 -0.2296 -0.2296 -0.9733 -97.4724 4.7714)" gradientUnits="userSpaceOnUse"><stop offset="0" stop-color="#A21814"/><stop offset="0" stop-color="#A21814"/><stop offset="1" stop-color="#DC1113"/></radialGradient><path d="M9.3 6.8c0 0 0 0.2 0.4 0.2 0 0 1.1-0.1 2.1-0.7 0.5-0.3 0.9-0.7 1.1-1.3 0.2-0.6 0.2-1.4-0.1-2.3 0 0-0.4-0.8 0.3-1 0 0-0.5-0.2-0.7 0.3 0 0.1 0.1 0.3 0.1 0.3 0.1 0.3 0.1 0.6 0.2 0.9 0 0.3 0.1 0.7 0 1.1 0 0.1-0.1 0.2-0.1 0.3 -0.2 0.5-0.6 0.9-1.2 1.3 -0.2 0.1-0.3 0.2-0.5 0.3 -0.5 0.2-1.4 0.4-1.4 0.6 0 0 0 0 0 0C9.3 6.6 9.3 6.7 9.3 6.8z" fill="url(#SVGID_47_)"/><radialGradient id="SVGID_48_" cx="101.9" cy="-28.6" r="5.7" gradientTransform="matrix(0.9733 -0.2296 -0.2296 -0.9733 -97.4724 4.7714)" gradientUnits="userSpaceOnUse"><stop offset="0" stop-color="#A21814"/><stop offset="0" stop-color="#A21814"/><stop offset="1" stop-color="#DC1113"/></radialGradient><path d="M9.3 6.8c0 0 0 0.2 0.4 0.2 0 0 1.1-0.1 2.1-0.7 0.5-0.3 0.9-0.7 1.1-1.3 0.2-0.6 0.2-1.4-0.1-2.3 0 0-0.4-0.8 0.3-1 0 0-0.6-0.2-0.7 0.3 0 0.1 0.1 0.3 0.1 0.3 0.1 0.3 0.1 0.6 0.2 0.9 0 0.3 0.1 0.7 0 1.1 0 0.1-0.1 0.2-0.1 0.3 -0.2 0.5-0.6 0.9-1.2 1.3 -0.2 0.1-0.3 0.2-0.5 0.3 -0.5 0.2-1.4 0.4-1.4 0.6 0 0 0 0 0 0C9.3 6.6 9.3 6.7 9.3 6.8z" fill="url(#SVGID_48_)"/><radialGradient id="SVGID_49_" cx="101.8" cy="-28.8" r="5.8" gradientTransform="matrix(0.9733 -0.2296 -0.2296 -0.9733 -97.4724 4.7714)" gradientUnits="userSpaceOnUse"><stop offset="0" stop-color="#A31814"/><stop offset="0" stop-color="#A31814"/><stop offset="1" stop-color="#DC1113"/></radialGradient><path d="M9.3 6.8c0 0 0 0.2 0.4 0.2 0 0 1.1-0.1 2.1-0.7 0.5-0.3 0.9-0.7 1.1-1.3 0.2-0.6 0.2-1.4-0.1-2.3 0 0-0.4-0.8 0.3-1 0 0-0.6-0.2-0.7 0.3 0 0.2 0.1 0.3 0.1 0.3 0.1 0.3 0.1 0.6 0.2 0.9 0.1 0.3 0.1 0.7 0 1.1 0 0.1-0.1 0.2-0.1 0.3 -0.2 0.5-0.6 1-1.2 1.3 -0.2 0.1-0.3 0.2-0.5 0.3 -0.6 0.2-1.4 0.4-1.4 0.6 0 0 0 0 0 0C9.3 6.6 9.3 6.7 9.3 6.8z" fill="url(#SVGID_49_)"/><radialGradient id="SVGID_50_" cx="101.7" cy="-28.9" r="6" gradientTransform="matrix(0.9733 -0.2296 -0.2296 -0.9733 -97.4724 4.7714)" gradientUnits="userSpaceOnUse"><stop offset="0" stop-color="#A31814"/><stop offset="0" stop-color="#A31814"/><stop offset="1" stop-color="#DC1113"/></radialGradient><path d="M9.3 6.8c0 0 0 0.2 0.4 0.2 0 0 1.1-0.1 2.1-0.7 0.5-0.3 0.9-0.7 1.1-1.3 0.2-0.6 0.2-1.4-0.1-2.3 0 0-0.4-0.8 0.3-1 0 0-0.6-0.2-0.7 0.3 0 0.2 0.1 0.3 0.1 0.3 0.1 0.3 0.1 0.6 0.2 0.9 0.1 0.3 0.1 0.7 0 1.1 0 0.1-0.1 0.2-0.1 0.3 -0.2 0.5-0.6 1-1.1 1.3 -0.2 0.1-0.3 0.2-0.5 0.3 -0.6 0.3-1.4 0.4-1.4 0.6 0 0 0 0 0 0C9.3 6.6 9.3 6.7 9.3 6.8z" fill="url(#SVGID_50_)"/><radialGradient id="SVGID_51_" cx="101.6" cy="-29.1" r="6.2" gradientTransform="matrix(0.9733 -0.2296 -0.2296 -0.9733 -97.4724 4.7714)" gradientUnits="userSpaceOnUse"><stop offset="0" stop-color="#A41814"/><stop offset="0" stop-color="#A41814"/><stop offset="1" stop-color="#DC1113"/></radialGradient><path d="M9.3 6.8c0 0 0 0.2 0.4 0.2 0 0 1.1-0.1 2.1-0.7 0.5-0.3 0.9-0.7 1.1-1.3 0.2-0.6 0.2-1.4-0.1-2.3 0 0-0.4-0.8 0.3-1 0 0-0.6-0.2-0.7 0.3 0 0.2 0.1 0.3 0.1 0.3 0.1 0.3 0.1 0.6 0.2 0.9 0.1 0.3 0.1 0.7 0 1.1 0 0.1-0.1 0.2-0.1 0.3 -0.2 0.5-0.6 1-1.1 1.3 -0.2 0.1-0.3 0.2-0.5 0.3 -0.6 0.3-1.4 0.4-1.5 0.6 0 0 0 0 0 0C9.3 6.6 9.3 6.7 9.3 6.8z" fill="url(#SVGID_51_)"/><radialGradient id="SVGID_52_" cx="101.5" cy="-29.3" r="6.3" gradientTransform="matrix(0.9733 -0.2296 -0.2296 -0.9733 -97.4724 4.7714)" gradientUnits="userSpaceOnUse"><stop offset="0" stop-color="#A41814"/><stop offset="0" stop-color="#A41814"/><stop offset="1" stop-color="#DC1113"/></radialGradient><path d="M9.3 6.8c0 0 0 0.2 0.4 0.2 0 0 1.1-0.1 2.1-0.7 0.5-0.3 0.9-0.7 1.1-1.3 0.2-0.6 0.2-1.4-0.1-2.3 0 0-0.4-0.8 0.3-1 0 0-0.6-0.2-0.7 0.3 0 0.2 0.1 0.3 0.1 0.3 0.1 0.3 0.2 0.6 0.2 0.9 0.1 0.3 0.1 0.7 0 1.1 0 0.1-0.1 0.2-0.1 0.3 -0.2 0.5-0.6 1-1.1 1.3 -0.2 0.1-0.3 0.2-0.5 0.3 -0.6 0.3-1.4 0.4-1.5 0.6 0 0 0 0 0 0C9.3 6.6 9.3 6.7 9.3 6.8z" fill="url(#SVGID_52_)"/><radialGradient id="SVGID_53_" cx="101.4" cy="-29.5" r="6.5" gradientTransform="matrix(0.9733 -0.2296 -0.2296 -0.9733 -97.4724 4.7714)" gradientUnits="userSpaceOnUse"><stop offset="0" stop-color="#A41814"/><stop offset="0" stop-color="#A41814"/><stop offset="1" stop-color="#DC1113"/></radialGradient><path d="M9.3 6.8c0 0 0 0.2 0.4 0.2 0 0 1.1-0.1 2.1-0.7 0.5-0.3 0.9-0.7 1.1-1.3 0.2-0.6 0.2-1.4-0.1-2.3 0 0-0.4-0.8 0.3-1 0 0-0.6-0.2-0.7 0.3 0 0.2 0.1 0.3 0.1 0.3 0.1 0.3 0.2 0.6 0.2 0.9 0.1 0.3 0.1 0.7 0 1.1 0 0.1-0.1 0.2-0.1 0.3 -0.2 0.6-0.6 1-1.1 1.3C11.1 5.9 10.9 6 10.8 6c-0.6 0.3-1.5 0.4-1.5 0.5 0 0 0 0 0 0C9.3 6.6 9.3 6.7 9.3 6.8z" fill="url(#SVGID_53_)"/><radialGradient id="SVGID_54_" cx="101.3" cy="-29.7" r="6.7" gradientTransform="matrix(0.9733 -0.2296 -0.2296 -0.9733 -97.4724 4.7714)" gradientUnits="userSpaceOnUse"><stop offset="0" stop-color="#A51814"/><stop offset="0" stop-color="#A51814"/><stop offset="1" stop-color="#DC1113"/></radialGradient><path d="M9.3 6.8c0 0 0 0.2 0.4 0.2 0 0 1.1-0.1 2.1-0.7 0.5-0.3 0.9-0.7 1.1-1.3 0.2-0.6 0.2-1.4-0.1-2.3 0 0-0.4-0.8 0.3-1 0 0-0.6-0.2-0.7 0.3 0 0.2 0.1 0.3 0.1 0.3 0.1 0.3 0.2 0.6 0.2 0.9 0.1 0.3 0.1 0.7 0 1.1 0 0.1-0.1 0.2-0.1 0.3 -0.2 0.6-0.6 1-1.1 1.3 -0.2 0.1-0.3 0.2-0.5 0.3 -0.7 0.3-1.5 0.4-1.5 0.5 0 0 0 0 0 0C9.3 6.6 9.3 6.7 9.3 6.8z" fill="url(#SVGID_54_)"/><radialGradient id="SVGID_55_" cx="101.2" cy="-29.8" r="6.8" gradientTransform="matrix(0.9733 -0.2296 -0.2296 -0.9733 -97.4724 4.7714)" gradientUnits="userSpaceOnUse"><stop offset="0" stop-color="#A51814"/><stop offset="0" stop-color="#A51814"/><stop offset="1" stop-color="#DC1113"/></radialGradient><path d="M9.3 6.8c0 0 0 0.2 0.4 0.2 0 0 1.1-0.1 2.1-0.7 0.5-0.3 0.9-0.7 1.1-1.3 0.2-0.6 0.2-1.4-0.1-2.3 0 0-0.4-0.8 0.3-1 0 0-0.6-0.2-0.7 0.3 0 0.2 0.1 0.3 0.1 0.3 0.1 0.3 0.2 0.6 0.2 0.9 0.1 0.4 0.1 0.7 0 1.1 0 0.1-0.1 0.2-0.1 0.3 -0.2 0.6-0.6 1-1.1 1.3C11.1 5.9 11 6 10.8 6.1c-0.7 0.3-1.5 0.4-1.5 0.5 0 0 0 0 0 0C9.3 6.6 9.3 6.7 9.3 6.8z" fill="url(#SVGID_55_)"/><radialGradient id="SVGID_56_" cx="101.1" cy="-30" r="7" gradientTransform="matrix(0.9733 -0.2296 -0.2296 -0.9733 -97.4724 4.7714)" gradientUnits="userSpaceOnUse"><stop offset="0" stop-color="#A61814"/><stop offset="0" stop-color="#A61814"/><stop offset="1" stop-color="#DC1113"/></radialGradient><path d="M9.3 6.8c0 0 0 0.2 0.4 0.2 0 0 1.1-0.1 2.1-0.7 0.5-0.3 0.9-0.7 1.1-1.3 0.2-0.6 0.2-1.4-0.1-2.3 0 0-0.4-0.8 0.3-1 0 0-0.6-0.2-0.7 0.3 0 0.2 0.1 0.3 0.1 0.3 0.1 0.3 0.2 0.6 0.2 0.9 0.1 0.4 0.1 0.7 0 1.1 0 0.1-0.1 0.2-0.1 0.3 -0.2 0.6-0.6 1-1.1 1.3C11.1 5.9 11 6 10.8 6.1c-0.7 0.3-1.5 0.4-1.5 0.5 0 0 0 0 0 0C9.3 6.6 9.3 6.7 9.3 6.8z" fill="url(#SVGID_56_)"/><radialGradient id="SVGID_57_" cx="101" cy="-30.2" r="7.2" gradientTransform="matrix(0.9733 -0.2296 -0.2296 -0.9733 -97.4724 4.7714)" gradientUnits="userSpaceOnUse"><stop offset="0" stop-color="#A61814"/><stop offset="0" stop-color="#A61814"/><stop offset="1" stop-color="#DC1113"/></radialGradient><path d="M9.3 6.8c0 0 0 0.2 0.4 0.2 0 0 1.1-0.1 2.1-0.7 0.5-0.3 0.9-0.7 1.1-1.3 0.2-0.6 0.2-1.4-0.1-2.3 0 0-0.4-0.8 0.3-1 0 0-0.6-0.2-0.7 0.3 0 0.2 0.1 0.3 0.1 0.3 0.1 0.3 0.2 0.6 0.2 0.9 0.1 0.4 0.1 0.8 0 1.1 0 0.1-0.1 0.2-0.1 0.3 -0.2 0.6-0.6 1-1.1 1.3C11.2 5.9 11 6 10.8 6.1c-0.7 0.3-1.5 0.4-1.5 0.5 0 0 0 0 0 0C9.3 6.6 9.3 6.7 9.3 6.8z" fill="url(#SVGID_57_)"/><radialGradient id="SVGID_58_" cx="100.9" cy="-30.4" r="7.3" gradientTransform="matrix(0.9733 -0.2296 -0.2296 -0.9733 -97.4724 4.7714)" gradientUnits="userSpaceOnUse"><stop offset="0" stop-color="#A71814"/><stop offset="0" stop-color="#A71814"/><stop offset="1" stop-color="#DC1113"/></radialGradient><path d="M9.3 6.8c0 0 0 0.2 0.4 0.2 0 0 1.1-0.1 2.1-0.7 0.5-0.3 0.9-0.7 1.1-1.3 0.2-0.6 0.2-1.4-0.1-2.3 0 0-0.4-0.8 0.3-1 0 0-0.6-0.2-0.7 0.3 0 0.2 0.1 0.3 0.1 0.3 0.1 0.3 0.2 0.6 0.2 0.9 0.1 0.4 0.1 0.8 0 1.1 0 0.1-0.1 0.2-0.1 0.3 -0.2 0.6-0.6 1-1.1 1.3C11.2 5.9 11 6 10.8 6.1c-0.7 0.3-1.5 0.4-1.5 0.5 0 0 0 0 0 0C9.3 6.6 9.3 6.7 9.3 6.8z" fill="url(#SVGID_58_)"/><radialGradient id="SVGID_59_" cx="100.8" cy="-30.5" r="7.5" gradientTransform="matrix(0.9733 -0.2296 -0.2296 -0.9733 -97.4724 4.7714)" gradientUnits="userSpaceOnUse"><stop offset="0" stop-color="#A71814"/><stop offset="0" stop-color="#A71814"/><stop offset="1" stop-color="#DC1113"/></radialGradient><path d="M9.3 6.8c0 0 0 0.2 0.4 0.2 0 0 1.1-0.1 2.1-0.7 0.5-0.3 0.9-0.7 1.1-1.3 0.2-0.6 0.2-1.4-0.1-2.3 0 0-0.4-0.8 0.3-1 0 0-0.6-0.2-0.7 0.3 0 0.2 0.1 0.3 0.1 0.3 0.1 0.3 0.2 0.6 0.2 0.9 0.1 0.4 0.1 0.8 0 1.1 0 0.1-0.1 0.2-0.1 0.3 -0.2 0.6-0.6 1-1.1 1.3C11.2 5.9 11 6 10.8 6.1c-0.8 0.3-1.5 0.4-1.5 0.5 0 0 0 0 0 0C9.3 6.6 9.3 6.7 9.3 6.8z" fill="url(#SVGID_59_)"/><radialGradient id="SVGID_60_" cx="100.7" cy="-30.7" r="7.7" gradientTransform="matrix(0.9733 -0.2296 -0.2296 -0.9733 -97.4724 4.7714)" gradientUnits="userSpaceOnUse"><stop offset="0" stop-color="#A81814"/><stop offset="0" stop-color="#A81814"/><stop offset="1" stop-color="#DC1113"/></radialGradient><path d="M9.3 6.8c0 0 0 0.2 0.4 0.2 0 0 1.1-0.1 2.1-0.7 0.5-0.3 0.9-0.7 1.1-1.3 0.2-0.6 0.2-1.4-0.1-2.3 0 0-0.4-0.8 0.3-1 0 0-0.6-0.2-0.7 0.3 0 0.2 0.1 0.3 0.1 0.3 0.1 0.3 0.2 0.6 0.2 0.9 0.1 0.4 0.1 0.8 0 1.1 0 0.1-0.1 0.2-0.1 0.3 -0.2 0.6-0.6 1-1.1 1.3C11.2 6 11 6.1 10.8 6.1c-0.8 0.4-1.5 0.4-1.5 0.5 0 0 0 0 0 0C9.3 6.6 9.3 6.7 9.3 6.8z" fill="url(#SVGID_60_)"/><radialGradient id="SVGID_61_" cx="100.6" cy="-30.9" r="7.9" gradientTransform="matrix(0.9733 -0.2296 -0.2296 -0.9733 -97.4724 4.7714)" gradientUnits="userSpaceOnUse"><stop offset="0" stop-color="#A81814"/><stop offset="1" stop-color="#DC1113"/></radialGradient><path d="M13 1.5c0 0-0.6-0.2-0.7 0.3 0 0.2 0.1 0.3 0.1 0.3 0.4 1 0.4 1.7 0.1 2.3 -0.2 0.6-0.7 1-1.1 1.3 -1 0.6-2.1 0.7-2.1 0.7 0 0 0 0 0 0 0 0.1 0 0.1 0 0.2 0 0 0 0.2 0.4 0.2 0 0 1.1-0.1 2.1-0.7 0.5-0.3 0.9-0.7 1.1-1.3 0.2-0.6 0.2-1.4-0.1-2.3C12.7 2.6 12.3 1.8 13 1.5z" fill="url(#SVGID_61_)"/><radialGradient id="SVGID_62_" cx="15.3" cy="8.3" r="10.2" gradientUnits="userSpaceOnUse"><stop offset="0" stop-color="#E95A4A"/><stop offset="0.5" stop-color="#E21615"/><stop offset="0.7" stop-color="#D81113"/><stop offset="1" stop-color="#B91714"/></radialGradient><path d="M14.6 6.5c1.4-4.9-0.9-6-0.9-6 -0.4-0.1-0.4 0-0.3 0.1 0 0 0 0.1 0 0.1 0 0 0 0.1 0 0.1 0 0 0 0.1 0 0.1 0 0 0 0.1 0 0.1 0 0 0 0.1 0 0.1 0 0 0 0.1 0 0.1 0 0 0 0.1 0 0.1 0 0 0 0.1 0 0.1 0 0 0 0.1 0 0.1 0 0 0 0.1 0 0.1 0 0 0 0.1 0 0.1 0 0 0 0.1 0 0.1 0 0 0 0.1 0 0.1 0 0 0 0 0 0.1 0 0.1 0.1 0.2 0.1 0.3 0 0 0 0.1 0 0.1 0 0.2 0 0.4 0.1 0.6 0 0.1 0 0.1 0 0.2 0 0.1 0 0.2 0 0.2 0 0.2 0 0.3 0 0.5 0 0.2-0.1 0.3-0.1 0.5 0 0.1 0 0.1-0.1 0.2 0 0.1-0.1 0.2-0.1 0.3 -0.4 1-1.1 1.7-2 2.3C10 7.9 8.1 8.2 8.1 8.2c-1.4 1.6 0.1 2.6 1.9 3.2 1.9 0.7 4.1 0.9 4.1 0.9 0 0 0 0 0-0.1h0c0 0 0 0 0-0.1 0 0 0 0 0 0 0 0 0 0 0-0.1 0 0 0 0 0 0 0 0 0 0 0-0.1 0 0 0 0 0 0 0 0 0 0 0-0.1 0 0 0 0 0 0 0 0 0-0.1 0-0.1 0 0 0 0 0 0 0 0 0 0 0-0.1 0 0 0 0 0 0 0-0.1 0-0.2 0-0.2 0 0 0-0.1 0-0.1C13.8 9.9 14.3 7.5 14.6 6.5z" fill="url(#SVGID_62_)"/><linearGradient id="SVGID_63_" gradientUnits="userSpaceOnUse" x1="111.1" y1="-22.3" x2="111.7" y2="-24.8" gradientTransform="matrix(0.9733 -0.2296 -0.2296 -0.9733 -97.4724 4.7714)"><stop offset="0.5" stop-color="#EE8269"/><stop offset="0.6" stop-color="#ED7962"/><stop offset="0.7" stop-color="#EA6150"/><stop offset="0.8" stop-color="#E63932"/><stop offset="0.9" stop-color="#E21113"/></linearGradient><path d="M14.4 0.4c0 0 1.7 0.3 3.1 1.9C17.5 2.3 15.4 0.6 14.4 0.4z" fill="url(#SVGID_63_)"/><radialGradient id="SVGID_64_" cx="10.1" cy="12.8" r="0.1" gradientUnits="userSpaceOnUse"><stop offset="0" stop-color="#FFFFFD"/><stop offset="0.6" stop-color="#FAF6F4"/><stop offset="0.8" stop-color="#F6F1EE"/><stop offset="0.9" stop-color="#E9E2DC"/><stop offset="1" stop-color="#E4DCD5"/></radialGradient><path d="M10.1 12.7C10.1 12.7 10.1 12.7 10.1 12.7 10.1 12.7 10.1 12.7 10.1 12.7z" fill="url(#SVGID_64_)"/><radialGradient id="SVGID_65_" cx="18.1" cy="10.5" r="0.1" gradientUnits="userSpaceOnUse"><stop offset="0" stop-color="#FFFFFD"/><stop offset="0.6" stop-color="#FAF6F4"/><stop offset="0.8" stop-color="#F6F1EE"/><stop offset="0.9" stop-color="#E9E2DC"/><stop offset="1" stop-color="#E4DCD5"/></radialGradient><path d="M18.1 10.4C18.1 10.4 18.1 10.4 18.1 10.4 18.1 10.4 18 10.3 18.1 10.4z" fill="url(#SVGID_65_)"/><radialGradient id="SVGID_66_" cx="18.4" cy="10.4" r="0.2" gradientUnits="userSpaceOnUse"><stop offset="0" stop-color="#FFFFFD"/><stop offset="0.6" stop-color="#FAF6F4"/><stop offset="0.8" stop-color="#F6F1EE"/><stop offset="0.9" stop-color="#E9E2DC"/><stop offset="1" stop-color="#E4DCD5"/></radialGradient><path d="M18.4 10.3c0 0 0-0.1 0-0.1C18.4 10.2 18.3 10.2 18.4 10.3z" fill="url(#SVGID_66_)"/><radialGradient id="SVGID_67_" cx="10.6" cy="12.9" r="0.4" gradientUnits="userSpaceOnUse"><stop offset="0" stop-color="#FFFFFD"/><stop offset="0.6" stop-color="#FAF6F4"/><stop offset="0.8" stop-color="#F6F1EE"/><stop offset="0.9" stop-color="#E9E2DC"/><stop offset="1" stop-color="#E4DCD5"/></radialGradient><path d="M10.5 12.6c0-0.1 0.1-0.1 0.2-0.2C10.7 12.4 10.5 12.5 10.5 12.6z" fill="url(#SVGID_67_)"/><radialGradient id="SVGID_68_" cx="6.4" cy="16.7" r="0.2" gradientUnits="userSpaceOnUse"><stop offset="0" stop-color="#FFFFFD"/><stop offset="0.6" stop-color="#FAF6F4"/><stop offset="0.8" stop-color="#F6F1EE"/><stop offset="0.9" stop-color="#E9E2DC"/><stop offset="1" stop-color="#E4DCD5"/></radialGradient><path d="M6.4 16.5c0 0-0.1-0.1-0.1-0.1C6.3 16.4 6.3 16.5 6.4 16.5z" fill="url(#SVGID_68_)"/><radialGradient id="SVGID_69_" cx="15.9" cy="11.1" r="0.2" gradientUnits="userSpaceOnUse"><stop offset="0" stop-color="#FFFFFD"/><stop offset="0.6" stop-color="#FAF6F4"/><stop offset="0.8" stop-color="#F6F1EE"/><stop offset="0.9" stop-color="#E9E2DC"/><stop offset="1" stop-color="#E4DCD5"/></radialGradient><path d="M15.9 10.9c0 0 0.1-0.1 0.1-0.1C16 10.8 15.9 10.9 15.9 10.9z" fill="url(#SVGID_69_)"/><radialGradient id="SVGID_70_" cx="19.3" cy="9.9" r="0.1" gradientUnits="userSpaceOnUse"><stop offset="0" stop-color="#FFFFFD"/><stop offset="0.6" stop-color="#FAF6F4"/><stop offset="0.8" stop-color="#F6F1EE"/><stop offset="0.9" stop-color="#E9E2DC"/><stop offset="1" stop-color="#E4DCD5"/></radialGradient><path d="M19.3 9.8C19.3 9.8 19.3 9.8 19.3 9.8 19.3 9.8 19.3 9.8 19.3 9.8z" fill="url(#SVGID_70_)"/><radialGradient id="SVGID_71_" cx="15.6" cy="11" r="0.1" gradientUnits="userSpaceOnUse"><stop offset="0" stop-color="#FFFFFD"/><stop offset="0.6" stop-color="#FAF6F4"/><stop offset="0.8" stop-color="#F6F1EE"/><stop offset="0.9" stop-color="#E9E2DC"/><stop offset="1" stop-color="#E4DCD5"/></radialGradient><path d="M15.6 10.9C15.6 10.9 15.6 10.9 15.6 10.9 15.7 10.9 15.6 10.9 15.6 10.9z" fill="url(#SVGID_71_)"/><radialGradient id="SVGID_72_" cx="17.3" cy="10.9" r="0" gradientUnits="userSpaceOnUse"><stop offset="0" stop-color="#FFFFFD"/><stop offset="0.6" stop-color="#FAF6F4"/><stop offset="0.8" stop-color="#F6F1EE"/><stop offset="0.9" stop-color="#E9E2DC"/><stop offset="1" stop-color="#E4DCD5"/></radialGradient><path d="M17.3 10.9C17.3 10.8 17.3 10.8 17.3 10.9 17.3 10.8 17.3 10.8 17.3 10.9z" fill="url(#SVGID_72_)"/><radialGradient id="SVGID_73_" cx="16.9" cy="11.1" r="0.2" gradientUnits="userSpaceOnUse"><stop offset="0" stop-color="#FFFFFD"/><stop offset="0.6" stop-color="#FAF6F4"/><stop offset="0.8" stop-color="#F6F1EE"/><stop offset="0.9" stop-color="#E9E2DC"/><stop offset="1" stop-color="#E4DCD5"/></radialGradient><path d="M16.9 11C16.9 11 16.9 11 16.9 11 17 11 16.9 11 16.9 11z" fill="url(#SVGID_73_)"/><radialGradient id="SVGID_74_" cx="23.2" cy="7.8" r="0.2" gradientUnits="userSpaceOnUse"><stop offset="0" stop-color="#FFFFFD"/><stop offset="0.6" stop-color="#FAF6F4"/><stop offset="0.8" stop-color="#F6F1EE"/><stop offset="0.9" stop-color="#E9E2DC"/><stop offset="1" stop-color="#E4DCD5"/></radialGradient><path d="M23.1 7.6c0 0 0-0.1 0.1-0.1C23.2 7.5 23.1 7.5 23.1 7.6z" fill="url(#SVGID_74_)"/><radialGradient id="SVGID_75_" cx="22" cy="8.3" r="0.2" gradientUnits="userSpaceOnUse"><stop offset="0" stop-color="#FFFFFD"/><stop offset="0.6" stop-color="#FAF6F4"/><stop offset="0.8" stop-color="#F6F1EE"/><stop offset="0.9" stop-color="#E9E2DC"/><stop offset="1" stop-color="#E4DCD5"/></radialGradient><path d="M22 8.2C22 8.2 22 8.1 22 8.2 22 8.1 22 8.1 22 8.2z" fill="url(#SVGID_75_)"/><radialGradient id="SVGID_76_" cx="13" cy="12.3" r="0.3" gradientUnits="userSpaceOnUse"><stop offset="0" stop-color="#FFFFFD"/><stop offset="0.6" stop-color="#FAF6F4"/><stop offset="0.8" stop-color="#F6F1EE"/><stop offset="0.9" stop-color="#E9E2DC"/><stop offset="1" stop-color="#E4DCD5"/></radialGradient><path d="M12.9 12.1c0 0 0-0.1 0.1-0.1C13 12 12.8 12 12.9 12.1z" fill="url(#SVGID_76_)"/><radialGradient id="SVGID_77_" cx="19.1" cy="18.1" r="0.2" gradientUnits="userSpaceOnUse"><stop offset="0" stop-color="#FFFFFD"/><stop offset="0.6" stop-color="#FAF6F4"/><stop offset="0.8" stop-color="#F6F1EE"/><stop offset="0.9" stop-color="#E9E2DC"/><stop offset="1" stop-color="#E4DCD5"/></radialGradient><path d="M19.1 17.8c0 0-0.1 0.1-0.1 0.1C19 18 19 17.9 19.1 17.8z" fill="url(#SVGID_77_)"/><radialGradient id="SVGID_78_" cx="21.6" cy="8.5" r="0.1" gradientUnits="userSpaceOnUse"><stop offset="0" stop-color="#FFFFFD"/><stop offset="0.6" stop-color="#FAF6F4"/><stop offset="0.8" stop-color="#F6F1EE"/><stop offset="0.9" stop-color="#E9E2DC"/><stop offset="1" stop-color="#E4DCD5"/></radialGradient><path d="M21.6 8.4C21.6 8.4 21.6 8.4 21.6 8.4 21.6 8.4 21.6 8.4 21.6 8.4z" fill="url(#SVGID_78_)"/><radialGradient id="SVGID_79_" cx="15.9" cy="18.7" r="0.1" gradientUnits="userSpaceOnUse"><stop offset="0" stop-color="#FFFFFD"/><stop offset="0.6" stop-color="#FAF6F4"/><stop offset="0.8" stop-color="#F6F1EE"/><stop offset="0.9" stop-color="#E9E2DC"/><stop offset="1" stop-color="#E4DCD5"/></radialGradient><path d="M15.9 18.7C15.9 18.7 15.8 18.7 15.9 18.7 15.8 18.7 15.9 18.7 15.9 18.7z" fill="url(#SVGID_79_)"/><radialGradient id="SVGID_80_" cx="20" cy="9.9" r="0.3" gradientUnits="userSpaceOnUse"><stop offset="0" stop-color="#FFFFFD"/><stop offset="0.6" stop-color="#FAF6F4"/><stop offset="0.8" stop-color="#F6F1EE"/><stop offset="0.9" stop-color="#E9E2DC"/><stop offset="1" stop-color="#E4DCD5"/></radialGradient><path d="M19.9 9.6c0-0.1 0-0.1 0.1-0.2C20 9.4 19.8 9.5 19.9 9.6z" fill="url(#SVGID_80_)"/><radialGradient id="SVGID_81_" cx="7.2" cy="18.2" r="0" gradientUnits="userSpaceOnUse"><stop offset="0" stop-color="#FFFFFD"/><stop offset="0.6" stop-color="#FAF6F4"/><stop offset="0.8" stop-color="#F6F1EE"/><stop offset="0.9" stop-color="#E9E2DC"/><stop offset="1" stop-color="#E4DCD5"/></radialGradient><path d="M7.2 18.2C7.2 18.1 7.2 18.1 7.2 18.2 7.2 18.1 7.2 18.1 7.2 18.2z" fill="url(#SVGID_81_)"/><radialGradient id="SVGID_82_" cx="20.9" cy="9" r="0.2" gradientUnits="userSpaceOnUse"><stop offset="0" stop-color="#FFFFFD"/><stop offset="0.6" stop-color="#FAF6F4"/><stop offset="0.8" stop-color="#F6F1EE"/><stop offset="0.9" stop-color="#E9E2DC"/><stop offset="1" stop-color="#E4DCD5"/></radialGradient><path d="M20.9 8.9C20.9 8.8 20.9 8.8 20.9 8.9 20.9 8.8 20.9 8.8 20.9 8.9z" fill="url(#SVGID_82_)"/><radialGradient id="SVGID_83_" cx="12.7" cy="19.8" r="0.2" gradientUnits="userSpaceOnUse"><stop offset="0" stop-color="#FFFFFD"/><stop offset="0.6" stop-color="#FAF6F4"/><stop offset="0.8" stop-color="#F6F1EE"/><stop offset="0.9" stop-color="#E9E2DC"/><stop offset="1" stop-color="#E4DCD5"/></radialGradient><path d="M12.7 19.6c0 0 0 0.1-0.1 0.1C12.6 19.7 12.7 19.7 12.7 19.6z" fill="url(#SVGID_83_)"/><radialGradient id="SVGID_84_" cx="7.5" cy="18" r="0" gradientUnits="userSpaceOnUse"><stop offset="0" stop-color="#FFFFFD"/><stop offset="0.6" stop-color="#FAF6F4"/><stop offset="0.8" stop-color="#F6F1EE"/><stop offset="0.9" stop-color="#E9E2DC"/><stop offset="1" stop-color="#E4DCD5"/></radialGradient><path d="M7.5 18C7.5 18 7.5 18 7.5 18 7.5 18 7.5 18 7.5 18z" fill="url(#SVGID_84_)"/><radialGradient id="SVGID_85_" cx="11" cy="13" r="0.4" gradientUnits="userSpaceOnUse"><stop offset="0" stop-color="#FFFFFD"/><stop offset="0.6" stop-color="#FAF6F4"/><stop offset="0.8" stop-color="#F6F1EE"/><stop offset="0.9" stop-color="#E9E2DC"/><stop offset="1" stop-color="#E4DCD5"/></radialGradient><path d="M10.8 12.8c0-0.1 0.1-0.1 0.2-0.2C11 12.6 10.9 12.6 10.8 12.8z" fill="url(#SVGID_85_)"/><radialGradient id="SVGID_86_" cx="15.9" cy="11.1" r="0.1" gradientUnits="userSpaceOnUse"><stop offset="0" stop-color="#FFFFFD"/><stop offset="0.6" stop-color="#FAF6F4"/><stop offset="0.8" stop-color="#F6F1EE"/><stop offset="0.9" stop-color="#E9E2DC"/><stop offset="1" stop-color="#E4DCD5"/></radialGradient><path d="M15.9 11.1C15.9 11 15.9 11 15.9 11.1 15.9 11 15.9 11 15.9 11.1z" fill="url(#SVGID_86_)"/><radialGradient id="SVGID_87_" cx="21.1" cy="9.2" r="0.1" gradientUnits="userSpaceOnUse"><stop offset="0" stop-color="#FFFFFD"/><stop offset="0.6" stop-color="#FAF6F4"/><stop offset="0.8" stop-color="#F6F1EE"/><stop offset="0.9" stop-color="#E9E2DC"/><stop offset="1" stop-color="#E4DCD5"/></radialGradient><path d="M21.1 9.1C21.1 9 21.1 9 21.1 9.1 21.1 9 21 9 21.1 9.1z" fill="url(#SVGID_87_)"/><radialGradient id="SVGID_88_" cx="20.1" cy="10" r="0.3" gradientUnits="userSpaceOnUse"><stop offset="0" stop-color="#FFFFFD"/><stop offset="0.6" stop-color="#FAF6F4"/><stop offset="0.8" stop-color="#F6F1EE"/><stop offset="0.9" stop-color="#E9E2DC"/><stop offset="1" stop-color="#E4DCD5"/></radialGradient><path d="M20.1 9.8c0-0.1 0-0.1 0.1-0.2C20.2 9.6 20 9.7 20.1 9.8z" fill="url(#SVGID_88_)"/><radialGradient id="SVGID_89_" cx="20.9" cy="35.8" r="25.5" gradientUnits="userSpaceOnUse"><stop offset="0" stop-color="#FFFFFD"/><stop offset="0.6" stop-color="#FAF6F4"/><stop offset="0.8" stop-color="#F6F1EE"/><stop offset="0.9" stop-color="#E9E2DC"/><stop offset="1" stop-color="#E4DCD5"/></radialGradient><path d="M26.5 13.6c-0.2-0.1-0.4-0.2-0.4-0.2 0.4 0 0.4-0.4 0.4-0.4 0 0 0 0 0 0 0-0.1 0-0.1 0-0.2 -0.3 0.1-0.4 0-0.5 0 0.4-0.1 0.3-0.3 0.3-0.3 0 0 0 0 0 0 0-0.1 0-0.1 0-0.1 -0.4 0.1-0.5-0.1-0.6-0.1 0.1-0.1 0.4-0.1 0.4-0.1 -0.1-0.1-0.2-0.1-0.2-0.1 0.1 0 0.3 0 0.3 0 -0.1 0-0.1-0.1-0.2-0.1 0.1-0.1 0.1-0.1 0.1-0.2 0.1-0.1 0-0.3 0-0.3 -0.3 0.2-0.4-0.1-0.5-0.1 0.1 0 0.2-0.1 0.2-0.2 0.1-0.1 0.1-0.1 0.1-0.1 -0.3 0.1-0.5-0.1-0.5-0.1 0-0.1 0.1-0.2 0.3-0.2 0.1 0 0.2 0 0.2 0 0 0 0 0 0 0 0 0 0.1 0 0.1 0 -0.2 0.1-0.5-0.2-0.5-0.2 0.5-0.2 0.3-0.3 0.3-0.3 0 0 0 0 0 0 0 0 0 0 0 0 -0.1 0-0.1 0-0.2 0 -0.1-0.1-0.1-0.2-0.1-0.2 0-0.2 0.4-0.1 0.4-0.1C25.8 10 25.7 10 25.7 10c-0.1 0-0.1-0.1-0.1-0.1 0.1 0 0.3-0.1 0.3-0.1 0 0-0.1 0-0.1 0 0 0 0.1 0 0.1 0 -0.1-0.1-0.3-0.1-0.4-0.1 0.1 0 0.3 0 0.3 0 0 0-0.1-0.1-0.1-0.1 0 0 0.1 0 0.1 0 -0.1-0.1-0.2-0.1-0.3-0.1 0.1-0.1 0.3-0.1 0.3-0.1 -0.1 0-0.2-0.1-0.2-0.1 0.1 0 0.2 0 0.2 0 -0.1 0-0.1 0-0.2-0.1 0.1-0.1 0.2-0.2 0.2-0.2 -0.1 0-0.1 0-0.2 0C25.5 9 25.5 9 25.5 9c-0.1 0-0.2 0-0.3 0 0.2 0 0.5 0 0.1-0.1 0 0 0 0 0 0 0.2 0 0.2 0-0.1-0.1 -0.1 0-0.1 0-0.2-0.1 0.2-0.1 0.3-0.4 0.3-0.4 -0.1 0.1-0.2 0.2-0.3 0.2 0.1-0.1 0.2-0.3 0.2-0.3 0 0.1-0.1 0.1-0.2 0.1 0.1-0.1 0-0.2 0-0.2 0 0.1-0.1 0.1-0.2 0.2 -0.1 0-0.1 0-0.1 0 0.3-0.1 0.2-0.3 0.2-0.3C25 7.9 25 8 24.9 8c-0.1 0-0.3 0.1-0.4 0.1 0 0 0 0 0 0 0.1-0.1 0.1-0.2 0.2-0.2 0.1 0 0.1-0.1 0.1-0.1 0 0-0.1 0-0.1 0 0-0.1 0-0.2 0-0.2 0 0.1-0.1 0.2-0.1 0.2C24.5 7.9 24.4 8 24.4 8c0.3-0.3 0.2-0.6 0.2-0.6 0 0.2-0.1 0.3-0.2 0.3 0-0.1 0.1-0.3 0.1-0.3 -0.1 0-0.2 0.1-0.2 0.2 0-0.2 0.1-0.4 0.1-0.4 -0.2 0-0.3 0.2-0.3 0.4 0 0 0 0.1 0 0.1 -0.1-0.2 0.1-0.7 0.1-0.7 -0.1 0-0.1 0.1-0.2 0.2 -0.1 0.1-0.2 0.1-0.2 0.2 0-0.2 0.1-0.5 0.1-0.5 -0.3 0.1-0.3 0.5-0.3 0.5 0-0.3-0.3-0.3-0.3-0.3 0.1 0.3-0.1 0.5-0.1 0.7 0 0 0 0 0 0 0 0 0 0 0 0.1 0 0 0 0 0 0 -0.1-0.2-0.1-0.2-0.1-0.3C23 7.8 23 7.9 22.9 8c0 0-0.1 0-0.1 0 0-0.2-0.2-0.2-0.2-0.2 0 0.3-0.1 0.5-0.2 0.6 0-0.1 0.1-0.2 0.1-0.2 -0.1 0.1-0.2 0.1-0.2 0.2 -0.1-0.3 0-0.4 0-0.4 -0.3 0.2-0.4 0.4-0.4 0.4C22 8.3 22 8.2 22 8.2c-0.2 0.2-0.2 0.3-0.2 0.4 -0.1-0.1-0.1-0.1-0.1-0.1 0 0.3-0.1 0.4-0.1 0.4 -0.1-0.2-0.3-0.2-0.3-0.2 0.1 0.5-0.1 0.5-0.1 0.5 0 0 0 0 0 0 0 0 0 0 0 0 0 0 0 0 0 0 -0.1-0.1-0.2-0.1-0.2-0.2 -0.1 0.3-0.1 0.4-0.1 0.4 -0.1-0.3-0.2-0.2-0.2-0.2 0 0.3 0 0.4-0.1 0.5 0-0.1-0.1-0.1-0.1-0.1 0 0.1 0 0.1 0 0.2 0-0.3-0.2-0.4-0.2-0.4 0 0.5-0.1 0.6-0.1 0.6 0 0 0 0 0 0 0 0 0 0 0 0 0 0 0 0 0 0 -0.1-0.1-0.1-0.1-0.2-0.2 0 0.1 0 0.2 0 0.3 0 0 0 0 0 0 0 0 0 0 0 0 -0.1-0.2-0.2-0.2-0.2-0.2 0 0.3-0.1 0.4-0.2 0.5 0-0.1 0-0.2 0-0.2 -0.1 0.1-0.1 0.1-0.1 0.2 -0.1-0.1-0.1-0.3-0.1-0.3 -0.1 0.1-0.1 0.2-0.2 0.3 0 0 0 0 0 0C19 10 18.8 10 18.8 10c0 0.5-0.2 0.5-0.2 0.5 0 0 0 0 0 0 0 0 0 0 0 0 -0.1-0.1-0.2-0.1-0.2-0.2 0 0.1-0.1 0.2-0.1 0.3 0 0 0 0 0 0 0 0 0 0 0 0.1 -0.1-0.1-0.2-0.2-0.2-0.2C18 10.6 18 10.8 18 10.9c0 0 0 0 0 0 -0.1-0.2-0.3-0.1-0.3-0.1 0.1 0.3-0.2 0.4-0.2 0.4 0 0 0 0 0 0 0 0 0-0.1 0.1-0.1 0 0-0.1 0.1-0.1 0.1 -0.2 0-0.1-0.2-0.1-0.2C17 11.2 17 11.2 17 11.3c0 0 0 0 0 0 -0.1-0.1-0.1-0.2-0.1-0.2 0 0-0.1 0.1-0.1 0.1 -0.1 0-0.1-0.1-0.1-0.1 0 0 0 0 0 0 -0.1-0.1-0.2-0.2-0.2-0.2 0 0.3-0.2 0.4-0.3 0.4 -0.1-0.1 0-0.2 0-0.3C16 11.2 16 11.3 16 11.3c-0.1-0.1-0.1-0.2-0.1-0.3 0 0 0 0.1-0.1 0.1 0-0.1 0-0.2 0.1-0.2 -0.1 0.1-0.1 0.3-0.1 0.3 -0.1-0.1-0.1-0.2-0.1-0.3 -0.1 0.2-0.2 0.4-0.2 0.5 -0.1 0-0.1 0-0.1 0 -0.3-0.3-0.3-0.1-0.3-0.1 0.1 0.3 0 0.4-0.1 0.5 -0.1-0.2-0.1-0.4-0.1-0.4 -0.1 0.1-0.1 0.2-0.2 0.3 -0.2-0.2-0.1-0.4-0.1-0.4 -0.2 0.2-0.2 0.4-0.2 0.5 -0.1 0-0.1-0.1-0.2-0.1 -0.2-0.1-0.3-0.1-0.3-0.1 0.1 0.3 0.1 0.4 0 0.5 -0.1-0.2-0.3-0.2-0.3-0.2 0 0 0 0 0 0.1 -0.1-0.1-0.3-0.2-0.3-0.2 0.1 0.4 0 0.5-0.1 0.5 -0.1 0-0.1-0.1-0.1-0.1 0 0 0 0 0 0.1 -0.1-0.1-0.2-0.1-0.2-0.2 0 0.1-0.1 0.1-0.1 0.2 -0.1-0.1-0.2-0.1-0.2-0.1 0 0.1 0 0.1 0 0.2 -0.1-0.2-0.3-0.3-0.3-0.3 0.1 0.3 0 0.4-0.1 0.5 -0.1-0.1-0.2-0.1-0.2-0.1 0 0 0 0.1 0 0.1 -0.2-0.2-0.3-0.2-0.3-0.2 0.1 0.2 0 0.3 0 0.4 -0.1-0.1-0.2-0.2-0.2-0.2 0 0.1 0 0.2 0 0.3 -0.1-0.2-0.3-0.4-0.3-0.4 0 0.4-0.1 0.5-0.2 0.6 0-0.1-0.1-0.1-0.1-0.2 0 0.1-0.1 0.1-0.1 0.2 -0.2-0.1-0.2-0.2-0.2-0.3 -0.1 0.1-0.1 0.2-0.2 0.3 -0.1 0.1-0.1 0.1-0.1 0.2 -0.2-0.1-0.2-0.3-0.1-0.4C10 12.8 9.9 12.9 9.9 13c-0.1 0-0.1 0-0.2 0 -0.4-0.2-0.8-0.1-0.8-0.1 0.3 0.2 0.3 0.4 0.3 0.5 -0.1 0-0.2 0-0.2-0.1 -0.2-0.1-0.5-0.2-0.5-0.2 0.1 0.2 0.1 0.4 0.1 0.4 -0.2-0.1-0.3-0.3-0.3-0.3 0.1 0.1 0.1 0.2 0.1 0.3 -0.2-0.1-0.5-0.4-0.5-0.4 0.1 0.3 0.2 0.4 0.2 0.5 -0.1 0-0.2-0.1-0.3-0.1C7.5 13.3 7 13.3 7 13.3c0.5 0.3 0.6 0.5 0.6 0.6 -0.1-0.1-0.2-0.2-0.2-0.2 0 0.1 0 0.1 0 0.1 -0.3-0.1-0.4-0.3-0.4-0.3 -0.1 0.3 0.1 0.6 0.1 0.6 -0.2-0.3-0.4-0.4-0.4-0.4 0 0.1 0.1 0.3 0.1 0.4 -0.1-0.1-0.1-0.2-0.1-0.2 0 0.2 0 0.3 0 0.4 -0.3-0.1-0.4-0.5-0.4-0.5 -0.1 0.5 0.1 0.7 0.3 0.8 0 0 0 0 0 0 -0.4-0.2-0.7 0-0.7 0 0.8 0.1 0.6 0.4 0.6 0.4C6.1 15 6 15.4 6 15.4c0.4-0.1 0.5 0.3 0.5 0.3 -0.1 0-0.3 0.2-0.3 0.2 0.9 0.1 0.8 0.3 0.8 0.3 -0.1 0.1-0.2 0.1-0.3 0.2 0 0 0-0.1-0.1-0.1 0 0 0 0.1 0 0.1 -0.1 0.1-0.2 0.1-0.3 0.1 0.2 0.2 0.4 0.3 0.6 0.3C6.8 16.9 6.7 17 6.7 17c0.8 0 0.6 0.3 0.6 0.3C7 17.2 7 17.6 7 17.6c0.4 0.1 0.6 0.3 0.7 0.4 -0.1 0-0.2 0-0.2 0 0 0 0 0.1 0.1 0.1 -0.2 0.1-0.3 0.1-0.4 0.1 0.1 0.3 0.5 0.3 0.7 0.3 0 0 0 0 0 0 -0.2 0.1-0.4 0.3-0.4 0.3 1 0.1 1 0.2 1 0.2 -0.2 0.2-0.4 0.1-0.4 0.1 0 0 0.1 0.1 0.2 0.1 -0.3 0.2-0.4 0.1-0.4 0.1 0.3 0.3 1 0 1 0 -0.3 0.5-0.2 0.8-0.2 0.8 0.4-0.5 0.7-0.6 0.7-0.6C9.4 20 9 20.5 9 20.5c0.2-0.1 0.4-0.3 0.5-0.5 0.1-0.1 0.1-0.2 0.2-0.2 0.1 0.3 0 0.7 0 0.7 0.1-0.1 0.2-0.2 0.2-0.4 0 0.1 0 0.1 0 0.1 0.1-0.1 0.1-0.2 0.2-0.3 0.1 0.5 0.3 0.6 0.3 0.6 -0.1-0.2-0.1-0.4 0-0.5 0.1 0.2 0.2 0.2 0.2 0.2 -0.1-0.2-0.1-0.3 0-0.5 0.1-0.1 0.1-0.1 0.1-0.1 0.3 0.7 0.2 0.7 0.2 0.7 0-0.1 0.1-0.3 0.2-0.4 0 0 0 0.1 0 0.1 0 0 0 0 0-0.1 0.1-0.1 0.2-0.1 0.2-0.1 0 0.3 0 0.5 0 0.5 0.1-0.1 0.2-0.2 0.2-0.3 0 0 0.1-0.1 0.1-0.1 0.1 0.2 0.3 0.3 0.3 0.3 -0.1-0.1 0-0.2 0.1-0.4 0.1 0 0.1 0 0.1 0 0-0.1 0-0.1 0-0.2 0.2-0.2 0.4-0.3 0.4-0.3 0.1 0.3 0.2 0.4 0.1 0.5 0.1-0.1 0.1-0.2 0.1-0.2 0 0 0 0 0-0.1l0 0c0 0 0 0 0 0 0 0 0 0 0 0 0.1-0.1 0.1-0.2 0.1-0.2 0.2 0.5 0.4 0.6 0.4 0.6 -0.1-0.2-0.1-0.4 0-0.6 0.1 0.2 0.2 0.2 0.2 0.2 -0.1-0.2-0.1-0.3 0-0.5 0.3 0.2 0.4 0.7 0.4 0.7 0-0.2 0-0.4 0.1-0.5 0 0.1 0.1 0.2 0.1 0.2 0-0.2 0-0.3 0.1-0.4 0.1-0.2 0.2-0.3 0.2-0.3 -0.1 0.7 0 0.8 0 0.8 0-0.1 0.1-0.3 0.1-0.4 0 0.1 0 0.1 0 0.1 0-0.1 0-0.1 0-0.1 0.2-0.2 0.4-0.4 0.4-0.4 0 0.5-0.1 0.7-0.1 0.7 0.2-0.3 0.3-0.5 0.4-0.6 0 0 0-0.1 0.1-0.1 0 0.5 0.2 0.6 0.2 0.6 -0.1-0.2 0-0.3 0-0.5 0 0.1 0.1 0.1 0.1 0.1 0-0.1 0-0.2 0-0.2 0.1-0.2 0.3-0.3 0.3-0.3 0.2 0.4 0.2 0.5 0.2 0.6 0.1-0.1 0.1-0.2 0.1-0.3 0 0 0.1-0.1 0.1-0.1 0.1 0.2 0.2 0.2 0.2 0.2 0-0.1 0-0.3 0-0.4 0 0 0.1 0.1 0.1 0.1 0-0.1 0-0.1 0-0.2 0.1-0.1 0.2-0.2 0.2-0.2 0.1 0.6 0.2 0.6 0.2 0.6 0-0.1 0.1-0.2 0.1-0.3 0 0 0 0 0 0 0-0.1 0.1-0.2 0.1-0.3 0.1 0.3 0.3 0.4 0.3 0.4 0-0.1 0-0.2 0-0.3 0 0 0.1 0 0.1 0 0 0 0-0.1 0-0.1 0.1-0.1 0.3-0.2 0.3-0.2 0 0.3 0 0.6 0 0.6 0.2-0.2 0.3-0.5 0.4-0.7 0 0 0 0 0 0 0.1 0.4 0.5 0.6 0.5 0.6 -0.1-0.1-0.1-0.3 0-0.4 0.1 0.1 0.1 0.1 0.1 0.1 -0.1 0-0.1-0.1-0.1-0.2 0.1-0.2 0.3-0.4 0.3-0.4 0.2 0.2 0.3 0.3 0.3 0.4 0 0 0 0-0.1 0.1 0 0 0 0 0.1-0.1 0 0.1 0 0.2 0 0.2 0.1-0.2 0.2-0.3 0.2-0.5 0 0 0-0.1 0-0.1 0.1 0.1 0.3 0.2 0.3 0.2 -0.1-0.1-0.1-0.2-0.1-0.3 0.1 0 0.1 0 0.1 0 -0.1 0-0.1-0.1-0.1-0.1 0.1-0.1 0.1-0.2 0.1-0.2 0.1 0.4 0.5 0.8 0.5 0.8 -0.1-0.1-0.1-0.3 0-0.4 0.1 0.1 0.1 0.1 0.1 0.1 0-0.1-0.1-0.2 0-0.3 0.1-0.3 0.3-0.5 0.3-0.5 0.1 0.4 0 0.9 0 0.9 0.4-0.3 0.4-0.6 0.4-0.8 0 0 0 0 0 0 0.1 0.4 0.4 0.5 0.4 0.5 0.3 0.3 0.3 0.1 0.2-0.2 0.1 0 0-0.4 0-0.8 0-0.1 0-0.1 0.1-0.2 0 0 0 0.1 0.1 0.1 0.2 1.4 0.2 0.6 0.2 0.6 0 0 0-0.1 0-0.1 0 0 0.1-0.2 0.1-0.2 0-0.1 0-0.2-0.1-0.3 0.1-0.2 0.2-0.3 0.2-0.3 0.2 0.4 0.1 0.7 0.1 0.7 0.2-0.1 0.2-0.3 0.2-0.5 0-0.1 0-0.1 0-0.2 0.2 0.4 0.4 0.4 0.4 0.4 -0.1-0.1-0.1-0.2-0.1-0.4 0.1 0.1 0.2 0.1 0.2 0.1 -0.1-0.2-0.2-0.4-0.2-0.6 0 0.3 0.4 0.6 0.4 0.6 0-0.1 0-0.2 0-0.3 0-0.1 0-0.2 0-0.3 0.2 0.3 0.3 0.4 0.3 0.4 -0.1-0.1-0.1-0.3-0.1-0.4 0.1 0.1 0.1 0.1 0.1 0.1 -0.1-0.2-0.1-0.3-0.1-0.4 0-0.1 0.1-0.2 0.1-0.2 0.2 0.2 0.3 0.3 0.3 0.3 -0.1 0 0-0.2 0-0.3 0 0 0 0 0 0 0 0 0 0 0 0 0.1-0.1 0.1-0.2 0.1-0.2 0.2 0.1 0.3 0.5 0.3 0.5 0.1-0.1 0.1-0.3 0-0.4 0 0 0-0.1 0-0.1 0.3 0.2 0.3 0.3 0.3 0.3 -0.1-0.1-0.1-0.2-0.1-0.3 0.1 0.1 0.1 0.1 0.1 0.1 0-0.1 0-0.1 0-0.1 0-0.1 0.1-0.1 0.1-0.1 0.4 0.2 0.4 0.4 0.4 0.4 0-0.1 0-0.3-0.1-0.4 0.1 0.1 0.1 0.2 0.1 0.2 0-0.1 0-0.3 0-0.4 0.3 0.1 0.5 0 0.5 0 -0.1-0.1-0.1-0.1-0.2-0.2 0.1 0 0.2 0 0.2 0 -0.2-0.1-0.2-0.2-0.2-0.3 0-0.1 0.1-0.1 0.1-0.1 0.5 0.4 0.7 0.2 0.7 0.2 -0.2-0.1-0.3-0.1-0.3-0.2 0.2 0.1 0.3 0 0.3 0 -0.2-0.1-0.3-0.1-0.3-0.2 0.7 0.1 0.8 0.1 0.8 0.1 -0.2-0.1-0.3-0.1-0.4-0.2C26.4 13.6 26.5 13.6 26.5 13.6z" fill="url(#SVGID_89_)"/><radialGradient id="SVGID_90_" cx="23.3" cy="8" r="0.2" gradientUnits="userSpaceOnUse"><stop offset="0" stop-color="#FFFFFD"/><stop offset="0.6" stop-color="#FAF6F4"/><stop offset="0.8" stop-color="#F6F1EE"/><stop offset="0.9" stop-color="#E9E2DC"/><stop offset="1" stop-color="#E4DCD5"/></radialGradient><path d="M23.3 7.8c0 0 0-0.1 0.1-0.1C23.3 7.7 23.3 7.7 23.3 7.8z" fill="url(#SVGID_90_)"/><radialGradient id="SVGID_91_" cx="19.5" cy="10.1" r="0.1" gradientUnits="userSpaceOnUse"><stop offset="0" stop-color="#FFFFFD"/><stop offset="0.6" stop-color="#FAF6F4"/><stop offset="0.8" stop-color="#F6F1EE"/><stop offset="0.9" stop-color="#E9E2DC"/><stop offset="1" stop-color="#E4DCD5"/></radialGradient><path d="M19.5 10C19.5 10 19.5 10 19.5 10 19.5 9.9 19.5 10 19.5 10z" fill="url(#SVGID_91_)"/><radialGradient id="SVGID_92_" cx="17.5" cy="11" r="0.1" gradientUnits="userSpaceOnUse"><stop offset="0" stop-color="#FFFFFD"/><stop offset="0.6" stop-color="#FAF6F4"/><stop offset="0.8" stop-color="#F6F1EE"/><stop offset="0.9" stop-color="#E9E2DC"/><stop offset="1" stop-color="#E4DCD5"/></radialGradient><path d="M17.5 11C17.5 11 17.5 11 17.5 11 17.5 11 17.5 11 17.5 11z" fill="url(#SVGID_92_)"/><radialGradient id="SVGID_93_" cx="18.6" cy="10.5" r="0.2" gradientUnits="userSpaceOnUse"><stop offset="0" stop-color="#FFFFFD"/><stop offset="0.6" stop-color="#FAF6F4"/><stop offset="0.8" stop-color="#F6F1EE"/><stop offset="0.9" stop-color="#E9E2DC"/><stop offset="1" stop-color="#E4DCD5"/></radialGradient><path d="M18.6 10.4C18.6 10.4 18.6 10.4 18.6 10.4 18.6 10.3 18.5 10.4 18.6 10.4z" fill="url(#SVGID_93_)"/><radialGradient id="SVGID_94_" cx="16.2" cy="11.2" r="0.2" gradientUnits="userSpaceOnUse"><stop offset="0" stop-color="#FFFFFD"/><stop offset="0.6" stop-color="#FAF6F4"/><stop offset="0.8" stop-color="#F6F1EE"/><stop offset="0.9" stop-color="#E9E2DC"/><stop offset="1" stop-color="#E4DCD5"/></radialGradient><path d="M16.1 11.1c0 0 0.1-0.1 0.1-0.1C16.2 11 16.1 11 16.1 11.1z" fill="url(#SVGID_94_)"/><radialGradient id="SVGID_95_" cx="13.2" cy="12.4" r="0.2" gradientUnits="userSpaceOnUse"><stop offset="0" stop-color="#FFFFFD"/><stop offset="0.6" stop-color="#FAF6F4"/><stop offset="0.8" stop-color="#F6F1EE"/><stop offset="0.9" stop-color="#E9E2DC"/><stop offset="1" stop-color="#E4DCD5"/></radialGradient><path d="M13.2 12.2c0 0 0-0.1 0.1-0.1C13.3 12.1 13.1 12.1 13.2 12.2z" fill="url(#SVGID_95_)"/><radialGradient id="SVGID_96_" cx="18.3" cy="10.6" r="0.1" gradientUnits="userSpaceOnUse"><stop offset="0" stop-color="#FFFFFD"/><stop offset="0.6" stop-color="#FAF6F4"/><stop offset="0.8" stop-color="#F6F1EE"/><stop offset="0.9" stop-color="#E9E2DC"/><stop offset="1" stop-color="#E4DCD5"/></radialGradient><path d="M18.3 10.6C18.3 10.5 18.3 10.5 18.3 10.6 18.3 10.5 18.2 10.5 18.3 10.6z" fill="url(#SVGID_96_)"/><radialGradient id="SVGID_97_" cx="1.3" cy="21" r="0.1" gradientUnits="userSpaceOnUse"><stop offset="0" stop-color="#FFFFFD"/><stop offset="0.4" stop-color="#FAF6F4"/><stop offset="0.6" stop-color="#F6F1EE"/><stop offset="0.9" stop-color="#E9E2DC"/><stop offset="1" stop-color="#E4DCD5"/></radialGradient><path d="M1.3 20.9C1.3 20.9 1.3 20.9 1.3 20.9 1.3 20.9 1.3 21 1.3 20.9z" fill="url(#SVGID_97_)"/><radialGradient id="SVGID_98_" cx="7.5" cy="20.3" r="0" gradientUnits="userSpaceOnUse"><stop offset="0" stop-color="#FFFFFD"/><stop offset="0.4" stop-color="#FAF6F4"/><stop offset="0.6" stop-color="#F6F1EE"/><stop offset="0.9" stop-color="#E9E2DC"/><stop offset="1" stop-color="#E4DCD5"/></radialGradient><path d="M7.5 20.3C7.5 20.3 7.5 20.3 7.5 20.3 7.5 20.3 7.5 20.3 7.5 20.3z" fill="url(#SVGID_98_)"/><radialGradient id="SVGID_99_" cx="2.8" cy="15" r="0.1" gradientUnits="userSpaceOnUse"><stop offset="0" stop-color="#FFFFFD"/><stop offset="0.4" stop-color="#FAF6F4"/><stop offset="0.6" stop-color="#F6F1EE"/><stop offset="0.9" stop-color="#E9E2DC"/><stop offset="1" stop-color="#E4DCD5"/></radialGradient><path d="M2.7 15c0-0.1 0.1-0.1 0.1-0.2C2.8 14.8 2.7 14.8 2.7 15z" fill="url(#SVGID_99_)"/><radialGradient id="SVGID_100_" cx="0.2" cy="18.1" r="0" gradientUnits="userSpaceOnUse"><stop offset="0" stop-color="#FFFFFD"/><stop offset="0.4" stop-color="#FAF6F4"/><stop offset="0.6" stop-color="#F6F1EE"/><stop offset="0.9" stop-color="#E9E2DC"/><stop offset="1" stop-color="#E4DCD5"/></radialGradient><path d="M0.2 18.1C0.2 18.1 0.2 18.1 0.2 18.1 0.2 18.1 0.2 18.1 0.2 18.1z" fill="url(#SVGID_100_)"/><radialGradient id="SVGID_101_" cx="3.5" cy="14.7" r="0" gradientUnits="userSpaceOnUse"><stop offset="0" stop-color="#FFFFFD"/><stop offset="0.4" stop-color="#FAF6F4"/><stop offset="0.6" stop-color="#F6F1EE"/><stop offset="0.9" stop-color="#E9E2DC"/><stop offset="1" stop-color="#E4DCD5"/></radialGradient><path d="M3.5 14.7C3.5 14.7 3.5 14.7 3.5 14.7 3.5 14.7 3.5 14.7 3.5 14.7z" fill="url(#SVGID_101_)"/><radialGradient id="SVGID_102_" cx="8" cy="18.4" r="0" gradientUnits="userSpaceOnUse"><stop offset="0" stop-color="#FFFFFD"/><stop offset="0.4" stop-color="#FAF6F4"/><stop offset="0.6" stop-color="#F6F1EE"/><stop offset="0.9" stop-color="#E9E2DC"/><stop offset="1" stop-color="#E4DCD5"/></radialGradient><path d="M7.9 18.3C7.9 18.4 8 18.4 7.9 18.3 8 18.4 8 18.3 7.9 18.3z" fill="url(#SVGID_102_)"/><radialGradient id="SVGID_103_" cx="5.7" cy="22.4" r="6.3" gradientUnits="userSpaceOnUse"><stop offset="0" stop-color="#FFFFFD"/><stop offset="0.4" stop-color="#FAF6F4"/><stop offset="0.6" stop-color="#F6F1EE"/><stop offset="0.9" stop-color="#E9E2DC"/><stop offset="1" stop-color="#E4DCD5"/></radialGradient><path d="M8.5 19.2c-0.3-0.8-1-0.8-1-0.8 0.2-0.1 0.4-0.1 0.4-0.1 -0.6-0.4-0.4-0.7-0.4-0.7 0 0 0-0.1 0.1-0.1 0.1 0 0.1 0.1 0.1 0.1 0 0-0.1-0.1-0.1-0.1 0.2-0.3 0.7 0 0.7 0 -0.5-0.6-1-0.5-1-0.5 0-0.3 0.5-0.4 0.5-0.4 -0.3-0.1-0.6 0.1-0.6 0.1C7.7 16.5 7.5 16 7.5 16c-0.3 0.6-0.6 0.1-0.6 0.1C7.1 16 7 15.7 7 15.7c-0.1 0.2-0.4 0.2-0.4 0.2C6.6 15.6 7 15.4 7 15.4c-0.3 0-0.8 0.5-0.8 0.5 0.1-0.2 0-0.4 0-0.4 -0.1 0.4-0.3 0.3-0.3 0.3 -0.1-0.2 0.3-0.5 0.3-0.5 -0.3 0-0.6 0.4-0.6 0.4 0.1-0.3 0-0.4 0-0.4 -0.2 0.4-0.4 0.2-0.4 0.2 0.2-0.4 0.2-0.7 0.2-0.7 -0.2 0.5-0.5 0.4-0.5 0.4 -0.2-0.3 0.1-0.5 0.1-0.5 -0.4 0.1-0.3 0.4-0.3 0.4 -0.1-0.2 0-0.5 0-0.5 -0.1 0.1-0.1 0.3-0.2 0.4 0 0.1-0.1 0.2-0.1 0.3 0-0.3-0.2-0.4-0.2-0.4 0 0.7-0.2 0.6-0.2 0.6 -0.2 0-0.4 0-0.4 0 0 0 0 0-0.1-0.1 0-0.1 0.1-0.1 0.1-0.2 -0.1 0-0.1 0.1-0.1 0.1 -0.3-0.3 0-0.6 0-0.7C3.1 15.1 3 15.3 3 15.4c0 0 0-0.1 0-0.1 0 0 0 0 0 0l0 0C3 15.1 3 15 3 15c-0.2 0.2-0.2 0.3-0.2 0.3 0 0 0 0 0-0.1 0 0 0 0 0 0 0 0 0 0 0 0C2.7 15.1 2.7 15 2.7 15c-0.2 0.4-0.4 0.5-0.4 0.5 -0.2-0.2 0.2-0.8 0.2-0.8C1.7 15.4 1.5 16 1.5 16c-0.2-0.2-0.3-0.7-0.3-0.7 -0.1 0.2 0 1 0 1C0.8 16.1 1 15.7 1 15.7c-0.3 0.4-0.3 0.5-0.3 0.5C0.3 16.2 0.2 16 0.2 16c0 0.4 0.5 0.9 0.5 0.9 -0.3-0.2-0.4-0.1-0.4-0.1 0.4 0.6 0.2 0.6 0.2 0.6 -0.4-0.1-0.5-0.7-0.5-0.7 0 0.5 0.3 0.9 0.3 0.9C0 17.5 0 17.2 0 17.2c0.1 0.9 0.5 1 0.6 1.1 -0.3-0.1-0.4-0.1-0.4-0.1 0.2 0.4 0.6 0.5 0.6 0.5 -0.2-0.1-0.4 0.1-0.4 0.1 0.3 0 0.4 0.5 0.4 0.5 -0.3 0.2-0.6-0.1-0.6-0.1 0.1 0.3 0.6 0.3 0.6 0.3 -0.6 0.1-0.5 0.3-0.5 0.3 0.5-0.2 0.6 0 0.6 0 -0.5 0.5-0.3 0.6-0.3 0.6 0.2-0.2 0.7-0.1 0.9-0.1 0 0 0 0 0 0 0 0 0 0 0 0 -0.2 0.4-0.6 0.3-0.6 0.3s-0.2-0.1 0 0.1c0.2 0.2 0.6 0 0.6 0 -0.1 0.2-0.1 0.2-0.2 0.3 0.7 0 0.8-0.1 0.8-0.1 -0.1 0.3-0.5 0.5-0.5 0.5 0.6 0 0.8-0.5 0.8-0.5 -0.2 0.5-0.3 0.6-0.3 0.6 0.4-0.1 0.5-0.3 0.5-0.3 -0.1 0.4 0 0.7 0 0.7 0-0.2 0.1-0.4 0.2-0.5 0 0 0 0 0 0 0 0 0 0 0 0C3 21.1 3 21 3 21c-0.1 0.4 0 0.7 0 0.7 0.1-0.4 0.5-0.6 0.5-0.6 -0.1 0.3 0 0.5 0 0.5 0.2-0.2 0.3-0.4 0.4-0.4 0 0-0.1 0.1-0.1 0.1 0.1 0 0.2-0.1 0.3-0.2 0 0 0.1 0 0.1 0 -0.1 0.4-0.4 0.8-0.4 0.8 0.3-0.2 0.7-0.7 0.7-0.7 0 0.4-0.2 0.7-0.2 0.7 0.3-0.2 0.4-0.5 0.4-0.6 -0.1 0.3 0 0.6 0 0.6C4.9 21.1 5.3 21 5.3 21c-0.1 0.4 0 0.7 0 0.7 0-0.3 0.1-0.4 0.3-0.5 0 0 0 0 0 0 0 0 0 0 0 0C5.6 21 5.6 21 5.6 21c-0.1 0.6 0.1 0.7 0.1 0.7 0-0.4 0.1-0.5 0.2-0.6 0 0 0.1 0.1 0.1 0.1 0 0 0-0.1 0-0.1C6 21 6 21 6 21c0 0.4 0.3 0.6 0.3 0.6 -0.1-0.5 0.3-0.7 0.3-0.7C7.3 21.1 7.2 21 7.2 21c-0.6-0.3-0.3-0.3-0.3-0.3 0.9 0 0.9 0 0.9 0 -0.4-0.1-0.6-0.3-0.8-0.4 0.2 0 0.2 0 0.2 0 -0.1 0-0.1 0-0.2-0.1 0.3 0 0.4 0 0.4 0 -0.6-0.5-0.3-0.6-0.3-0.6 0.7-0.1 1 0.2 1 0.2C8.1 19.3 7.8 19 7.8 19 8.3 18.9 8.5 19.2 8.5 19.2z" fill="url(#SVGID_103_)"/><radialGradient id="SVGID_104_" cx="3.6" cy="15.2" r="0" gradientUnits="userSpaceOnUse"><stop offset="0" stop-color="#FFFFFD"/><stop offset="0.4" stop-color="#FAF6F4"/><stop offset="0.6" stop-color="#F6F1EE"/><stop offset="0.9" stop-color="#E9E2DC"/><stop offset="1" stop-color="#E4DCD5"/></radialGradient><path d="M3.6 15.2C3.6 15.2 3.6 15.2 3.6 15.2 3.6 15.2 3.6 15.2 3.6 15.2z" fill="url(#SVGID_104_)"/></svg>